<?xml version="1.0" encoding="UTF-8"?>
<svg width="400" height="400" viewBox="0 0 400 400" xmlns="http://www.w3.org/2000/svg">
  <!-- Petals -->
  <path d="M200 150 C 170 120, 150 80, 200 50 C 250 80, 230 120, 200 150 Z" fill="white" stroke="black"/>
  <path d="M250 200 C 280 170, 320 150, 350 200 C 320 250, 280 230, 250 200 Z" fill="white" stroke="black"/>
  <path d="M200 250 C 230 280, 250 320, 200 350 C 150 320, 170 280, 200 250 Z" fill="white" stroke="black"/>
  <path d="M150 200 C 120 230, 80 250, 50 200 C 80 150, 120 170, 150 200 Z" fill="white" stroke="black"/>
  
  <!-- Center -->
  <circle cx="200" cy="200" r="30" fill="white" stroke="black"/>
  
  <!-- Stem -->
  <path d="M200 350 L 200 400 M 200 380 L 220 390 M 200 370 L 180 380" fill="none" stroke="black"/>
</svg> 