<?xml version="1.0" standalone="no"?>
<!DOCTYPE svg PUBLIC "-//W3C//DTD SVG 20010904//EN"
 "http://www.w3.org/TR/2001/REC-SVG-20010904/DTD/svg10.dtd">
<svg version="1.0" xmlns="http://www.w3.org/2000/svg"
 width="512.000000pt" height="512.000000pt" viewBox="0 0 512.000000 512.000000"
 preserveAspectRatio="xMidYMid meet">
<metadata>
Created by potrace 1.16, written by Peter Selinger 2001-2019
</metadata>
<g transform="translate(0.000000,512.000000) scale(0.100000,-0.100000)"
fill="#000000" stroke="none">
<path d="M0 5108 c0 -10 18 -12 66 -10 72 4 114 -3 114 -18 0 -6 -10 -8 -22
-5 -13 3 -41 -1 -63 -10 -22 -8 -29 -13 -15 -10 82 18 86 17 35 -10 -27 -14
-59 -35 -70 -47 -14 -14 -4 -11 32 11 56 32 147 63 158 53 3 -3 -4 -15 -17
-25 l-23 -18 24 11 c19 10 26 9 39 -4 13 -13 13 -17 1 -33 -12 -16 -11 -16 9
1 22 19 22 19 22 -2 0 -12 -19 -42 -42 -66 -45 -46 -100 -69 -199 -82 -27 -4
-49 -10 -49 -15 0 -21 123 3 190 36 63 32 99 73 109 126 8 40 9 41 10 11 3
-82 -80 -154 -239 -207 -55 -19 -65 -26 -68 -48 -3 -22 1 -26 37 -32 23 -4 41
-12 41 -19 0 -14 -52 -90 -69 -101 -6 -3 -11 -37 -11 -74 0 -75 10 -92 67
-111 17 -6 53 -38 83 -75 32 -39 58 -61 66 -58 8 3 11 9 8 15 -3 5 3 4 15 -4
12 -7 21 -16 21 -19 0 -4 -23 -22 -51 -40 -44 -28 -62 -33 -130 -37 -75 -4
-79 -6 -79 -28 0 -18 6 -24 22 -24 21 0 21 0 -3 -27 -20 -24 -21 -25 -2 -9 12
10 28 16 35 14 7 -3 -1 -12 -20 -23 -29 -17 -42 -35 -26 -35 9 0 66 40 96 68
23 21 34 24 73 20 25 -3 49 -8 52 -12 7 -6 -23 -55 -46 -74 -25 -21 -134 -72
-153 -72 -17 0 -34 -17 -26 -26 7 -6 108 25 151 47 21 11 65 47 99 80 58 57
61 59 79 43 19 -17 26 -44 11 -44 -5 0 -17 -7 -28 -15 -17 -14 -15 -14 14 0
17 8 32 20 32 25 0 6 9 10 19 10 13 0 23 -11 31 -36 7 -19 14 -33 16 -31 2 2
-3 24 -11 47 -9 24 -13 50 -11 57 8 19 83 17 94 -3 8 -15 10 -15 15 0 4 10 18
16 42 16 33 0 37 -4 66 -61 36 -72 35 -73 -42 -159 l-49 -54 -34 18 c-44 23
-81 63 -92 98 l-9 27 -80 -49 c-44 -28 -71 -50 -61 -50 20 0 110 -49 103 -56
-2 -2 -23 2 -46 11 -52 18 -88 20 -213 10 -86 -7 -98 -10 -98 -27 0 -13 7 -18
28 -18 43 0 131 -27 202 -61 114 -56 287 -253 275 -314 -2 -11 -4 -40 -4 -65
l-1 -45 -24 66 c-69 195 -280 372 -440 368 -38 -1 -36 -2 24 -15 84 -18 114
-30 178 -72 80 -52 74 -70 -77 -191 -51 -40 -88 -38 -128 9 -37 44 -40 30 -4
-20 35 -49 45 -86 36 -141 -6 -34 -10 -40 -28 -37 -15 2 -24 13 -28 33 -5 22
-7 13 -8 -31 -1 -56 2 -65 40 -118 33 -46 40 -63 35 -87 -9 -46 1 -34 19 24
10 28 21 56 25 60 12 13 88 -88 123 -161 24 -51 31 -82 35 -152 6 -107 -11
-206 -41 -237 -23 -26 -36 -28 -60 -10 -15 11 -15 17 -2 67 8 30 14 69 14 85
-2 27 -2 27 -6 5 -2 -14 -9 -42 -14 -63 -9 -33 -12 -36 -24 -23 -13 13 -13 35
1 176 8 89 14 166 12 172 -3 9 -24 -131 -44 -289 -4 -31 -11 -44 -25 -48 -11
-4 -24 -4 -27 0 -12 12 -14 242 -3 296 6 28 10 54 7 56 -9 9 -27 -104 -33
-206 -4 -77 -10 -109 -21 -117 -13 -9 -10 -20 22 -72 30 -47 40 -76 47 -134 4
-40 11 -88 14 -106 5 -27 3 -32 -14 -32 -11 0 -30 10 -41 22 -19 21 -21 21
-14 3 7 -18 6 -18 -9 -6 -15 11 -17 11 -17 -1 0 -9 16 -26 35 -39 19 -13 49
-43 66 -67 l30 -42 -17 -70 c-26 -108 -38 -106 -68 10 -23 89 -31 85 -12 -6
17 -82 13 -96 -8 -28 l-15 49 0 -43 c-1 -29 9 -62 29 -102 16 -33 30 -62 30
-64 0 -3 -16 -8 -35 -12 -48 -9 -45 -26 3 -18 59 9 132 -27 192 -94 27 -31 48
-57 46 -59 -2 -2 -38 12 -81 32 -82 37 -107 44 -65 19 24 -14 21 -15 -38 -9
-35 3 -70 9 -78 12 -11 4 -14 -5 -14 -37 0 -36 3 -41 17 -36 9 4 51 10 93 13
141 11 233 -30 377 -169 50 -48 95 -88 99 -88 4 0 -4 13 -19 28 -15 16 -25 30
-23 33 3 2 -4 15 -16 29 -11 14 -16 18 -12 10 4 -8 3 -12 -1 -8 -5 5 -10 19
-11 33 -2 22 0 25 19 19 22 -6 78 -38 127 -71 l25 -17 -20 23 c-11 13 -44 37
-74 54 l-54 31 23 18 c17 14 42 18 104 20 75 2 76 2 19 5 -51 3 -61 7 -56 19
3 9 0 20 -7 24 -8 5 7 12 41 19 30 5 65 12 79 15 14 3 -6 3 -45 1 -53 -4 -86
-12 -138 -38 -37 -18 -67 -30 -67 -26 0 19 85 64 279 150 79 35 211 33 296 -4
l60 -27 -75 0 c-55 0 -87 -6 -120 -21 l-45 -21 29 -9 c40 -11 66 -38 66 -68 0
-112 -124 -250 -238 -267 -62 -9 -117 7 -192 55 -33 22 -93 52 -133 67 -40 15
-109 42 -154 60 -86 36 -115 39 -203 26 -43 -6 -50 -9 -33 -15 16 -6 23 -19
29 -60 10 -67 8 -78 -22 -104 -22 -20 -24 -29 -23 -105 0 -67 2 -79 11 -60 13
26 38 29 38 5 0 -10 -11 -36 -25 -58 -23 -37 -37 -78 -15 -45 8 12 10 9 10
-13 0 -23 3 -26 17 -19 11 7 27 5 47 -3 17 -8 40 -16 51 -20 17 -6 14 -9 -18
-20 -42 -14 -74 -39 -89 -70 -7 -14 -2 -12 14 7 38 44 84 61 147 55 31 -2 65
-8 76 -12 20 -7 20 -7 0 8 -11 8 -32 17 -45 19 -22 3 -19 6 24 26 27 12 50 21
51 20 9 -17 65 -137 65 -141 0 -3 -64 -7 -142 -9 -107 -2 -152 -8 -180 -20
l-38 -17 0 -265 0 -265 49 -26 c54 -30 116 -106 113 -139 0 -11 9 -34 22 -51
28 -37 33 -51 46 -144 6 -41 20 -95 32 -120 12 -25 24 -50 26 -56 3 -5 -5 -2
-16 9 -12 10 -24 27 -27 37 -4 11 -10 17 -15 14 -11 -7 -48 43 -85 112 -15 28
-34 54 -41 57 -18 7 -18 35 0 42 8 3 24 1 35 -6 12 -6 21 -8 21 -4 0 10 -81
97 -125 134 l-40 34 36 -40 c19 -21 42 -48 50 -58 16 -22 12 -21 -46 16 l-30
20 30 -26 c28 -24 29 -27 13 -42 -14 -14 -20 -15 -32 -4 -13 10 -16 10 -16 0
0 -7 18 -28 40 -47 42 -37 52 -56 22 -47 -9 3 -5 -2 11 -11 54 -31 23 -69 -33
-40 -18 9 -35 13 -38 10 -8 -8 -3 -12 75 -56 47 -26 52 -32 41 -48 -9 -15 -17
-17 -47 -10 -57 13 -82 10 -41 -6 l35 -13 -32 -1 c-54 -1 -37 -18 25 -26 31
-4 75 -13 97 -21 27 -9 89 -14 194 -14 152 0 155 0 190 27 20 15 40 33 44 40
4 7 12 13 17 13 19 0 10 -22 -21 -51 l-31 -29 63 0 c35 0 114 9 174 20 61 10
139 23 175 28 61 9 60 9 -25 5 -49 -3 -121 -11 -159 -19 -38 -7 -72 -11 -75
-9 -8 9 32 32 83 48 111 35 226 48 354 41 l123 -6 -23 -25 c-12 -13 -43 -37
-67 -54 -27 -18 -38 -29 -27 -29 21 0 65 29 123 81 23 21 54 41 68 45 20 5 24
9 13 16 -9 6 -6 7 9 3 15 -4 55 11 130 50 109 57 110 58 15 22 -29 -11 -55
-17 -58 -14 -14 14 25 86 71 132 53 53 106 76 209 90 l48 7 -7 -64 c-4 -35
-17 -86 -30 -114 -23 -52 -93 -139 -103 -129 -3 3 8 20 24 38 19 22 14 19 -16
-9 -45 -41 -46 -42 -138 -47 l-94 -6 16 24 c28 43 17 38 -38 -15 -71 -68 -83
-76 -147 -94 -53 -15 -51 -15 101 -10 85 2 166 5 180 6 14 1 45 -1 70 -5 39
-7 42 -6 25 5 -14 9 -56 13 -132 12 -102 -1 -111 0 -103 16 19 35 42 43 153
52 l112 9 30 -34 c17 -18 36 -42 42 -53 12 -17 12 -16 7 8 -6 27 -6 27 33 17
21 -5 57 -17 81 -25 24 -9 45 -14 48 -11 3 2 -24 15 -58 28 -35 12 -79 29 -98
37 -35 15 -35 15 -10 23 14 4 72 7 130 8 114 1 158 -12 230 -67 33 -25 43 -27
156 -30 l121 -4 47 36 c44 34 82 49 151 60 17 2 -4 2 -46 -1 -49 -3 -79 -1
-83 6 -4 6 16 26 46 45 29 18 64 47 78 62 l25 29 -30 -27 c-32 -28 -155 -101
-155 -91 0 3 9 20 20 38 25 41 57 62 120 81 27 8 63 26 80 40 l30 26 0 -24 c0
-13 -5 -39 -10 -58 -8 -27 -6 -47 6 -86 21 -68 17 -84 -31 -111 l-40 -23 84 0
c80 0 83 1 68 18 -8 9 -30 48 -47 86 l-31 69 82 -6 c101 -8 151 -31 214 -98
46 -50 56 -82 12 -42 -22 21 -119 73 -134 73 -4 0 17 -14 47 -32 30 -17 66
-39 79 -49 38 -30 82 -24 106 14 29 46 114 77 230 84 51 3 112 3 137 -1 41 -6
45 -9 40 -31 -4 -23 -9 -25 -71 -26 -71 -2 -63 -4 40 -14 61 -6 66 -8 61 -27
-5 -20 10 -21 143 -8 6 0 33 -2 60 -5 l50 -6 -64 22 c-53 17 -76 32 -125 82
-33 34 -56 55 -51 47 8 -13 6 -13 -11 0 -61 45 -61 43 8 62 35 9 91 25 124 34
48 14 72 16 109 8 27 -5 50 -14 52 -21 3 -7 -4 -10 -19 -6 -13 2 -5 -4 18 -15
48 -23 84 -65 77 -91 -5 -18 -6 -18 -65 0 -88 28 -93 22 -9 -11 40 -16 75 -31
78 -33 11 -11 -19 -48 -35 -43 -9 3 -30 8 -47 11 -27 6 -25 4 14 -19 23 -14
52 -26 63 -26 11 0 67 24 125 52 103 52 108 53 188 52 96 -2 177 -23 261 -70
l61 -34 243 0 c223 0 249 2 309 22 76 24 105 44 51 34 -27 -4 -31 -3 -20 5 12
9 11 10 -5 4 -174 -58 -219 -69 -179 -41 11 8 33 18 49 22 32 8 185 152 185
174 -1 8 -15 -3 -33 -25 -62 -77 -96 -103 -166 -121 -36 -9 -73 -22 -81 -27
-8 -5 -1 4 16 20 18 18 60 40 98 53 52 17 70 28 82 51 l15 30 -26 -17 c-19
-13 -29 -14 -37 -6 -9 9 -4 20 18 44 l29 32 -29 -22 c-15 -12 -33 -19 -39 -15
-16 10 51 61 106 81 26 9 47 22 47 29 0 7 -7 10 -15 7 -20 -8 -19 1 2 33 19
29 8 27 -29 -4 -14 -13 -20 -12 -42 2 -25 17 -38 44 -14 29 7 -4 8 -3 4 4 -9
15 9 48 48 91 l31 34 -32 -22 c-20 -13 -45 -47 -65 -89 -18 -37 -35 -69 -39
-72 -4 -3 -10 -24 -13 -47 -4 -22 -13 -49 -20 -58 -11 -15 -13 -8 -12 46 1 47
8 77 26 113 28 56 105 145 144 165 20 11 26 22 26 48 0 21 -4 32 -10 28 -22
-13 -50 6 -50 34 0 15 -9 63 -20 107 -12 43 -18 89 -15 101 3 12 25 38 50 59
40 32 45 41 45 76 l0 40 -37 -22 c-21 -13 -53 -38 -70 -56 l-33 -34 -14 23
c-39 59 -127 258 -132 300 l-7 47 41 0 41 0 15 -72 c9 -40 17 -89 19 -108 3
-31 4 -30 5 9 1 24 -3 73 -9 108 -15 83 -11 92 38 84 l38 -6 -2 -55 -2 -55 10
53 c7 32 16 52 24 52 62 0 60 -53 -5 -189 -28 -57 -50 -106 -50 -109 0 -3 16
21 36 54 43 73 75 108 49 54 l-17 -35 31 35 30 35 1 149 0 150 -27 -25 c-91
-82 -213 -114 -365 -93 l-45 6 24 82 c51 173 118 263 243 326 121 61 210 62
108 1 -45 -27 -41 -33 10 -13 8 3 2 -19 -16 -55 -31 -61 -87 -120 -141 -148
-34 -17 -42 -28 -13 -18 44 16 124 79 146 115 l24 40 7 -57 c6 -55 6 -58 -27
-92 -18 -19 -73 -54 -123 -79 -102 -49 -107 -55 -16 -19 69 27 148 74 176 105
14 16 21 18 28 8 5 -8 6 -4 2 12 -27 99 -28 116 -10 172 11 36 15 70 11 92 -3
20 -9 51 -12 70 -3 20 -1 36 5 40 19 12 13 35 -8 29 -23 -6 -31 34 -31 173 0
89 3 107 25 148 27 51 31 82 14 106 -9 13 -10 13 -6 -2 3 -9 -1 -24 -8 -35 -9
-11 -14 -13 -15 -5 0 7 -10 2 -22 -12 -31 -34 -100 -50 -123 -27 -15 15 -16
15 -10 0 4 -10 0 -19 -9 -22 -11 -4 -16 -1 -17 11 0 12 -4 9 -11 -8 l-10 -25
-14 30 c-7 17 -13 46 -13 65 1 45 22 115 34 114 54 -4 100 -22 136 -52 33 -29
39 -31 29 -13 -10 19 -9 31 5 70 10 25 26 60 35 76 10 17 21 41 24 55 7 24 6
24 -9 -2 -9 -16 -19 -28 -24 -28 -5 0 -11 -10 -15 -22 -5 -19 -8 -21 -16 -8
-7 12 -10 8 -10 -17 0 -17 -3 -38 -6 -47 -7 -19 -62 -22 -70 -3 -9 25 25 165
54 224 17 32 46 78 66 102 30 36 36 51 36 90 0 26 -4 51 -10 57 -5 5 -6 24 0
49 13 56 3 57 -12 1 -15 -58 -46 -64 -39 -8 1 8 16 42 32 76 24 51 30 73 27
117 -3 53 -4 53 -16 25 -21 -48 -52 -86 -92 -111 -33 -21 -55 -25 -154 -30
-116 -6 -159 -15 -234 -54 -23 -12 -42 -17 -42 -12 0 5 33 40 74 78 88 83 177
130 272 145 38 6 96 16 129 22 l60 11 3 170 c2 155 1 175 -20 229 -30 82 -34
55 -8 -56 16 -68 20 -108 16 -148 -10 -87 -24 -130 -41 -124 -7 3 -11 13 -8
22 3 11 2 13 -4 6 -4 -6 -21 -14 -37 -18 -24 -6 -28 -4 -22 10 5 13 3 14 -6 7
-7 -5 -21 -13 -31 -16 -15 -6 -16 -3 -7 13 16 29 11 37 -8 13 -12 -15 -35 -24
-79 -31 -35 -5 -63 -5 -63 -1 0 4 9 29 21 56 14 34 49 76 119 143 54 52 102
104 108 115 5 11 -23 -12 -63 -51 -63 -61 -81 -73 -141 -91 -38 -11 -75 -18
-81 -16 -35 14 -2 148 52 210 52 61 118 85 221 81 94 -3 113 7 30 17 -57 7
-139 -6 -184 -29 -42 -22 -99 -87 -122 -138 -32 -74 -36 -127 -11 -175 11 -23
22 -61 23 -85 l3 -43 -37 -3 c-40 -3 -42 0 -51 73 -2 17 -5 7 -6 -22 0 -35 -5
-53 -13 -53 -7 0 -24 -3 -37 -7 -21 -5 -23 -4 -16 18 7 20 6 22 -7 11 -13 -10
-30 3 -108 80 -51 51 -81 78 -66 59 15 -19 38 -43 52 -53 29 -24 84 -101 84
-120 0 -8 -6 -23 -14 -34 -14 -18 -17 -17 -61 26 -25 25 -60 65 -76 90 -28 42
-65 145 -72 200 -1 14 -6 31 -11 39 -7 11 -4 13 18 7 15 -4 66 -13 113 -22 48
-8 102 -24 120 -35 l33 -21 0 29 c0 65 99 175 199 222 51 24 67 26 178 26
l123 0 0 36 0 37 -53 6 c-70 9 -182 -14 -254 -53 -30 -17 -52 -25 -49 -18 74
165 93 253 78 360 -9 56 -8 59 21 83 43 36 83 55 137 63 48 8 48 7 54 -22 10
-52 6 -132 -9 -185 -17 -57 -51 -101 -107 -142 -61 -45 -158 -137 -120 -115
17 11 32 23 32 28 0 4 5 5 10 2 6 -3 10 -2 10 4 0 6 8 8 18 5 13 -5 14 -4 4 4
-11 7 0 17 45 42 32 18 86 51 121 74 51 33 62 45 62 68 l0 27 -39 -42 c-22
-23 -42 -40 -45 -37 -2 3 4 30 14 60 13 37 19 83 20 143 0 87 0 87 25 87 25 0
26 1 23 62 l-3 62 -38 8 c-51 11 -124 49 -176 92 -24 20 -53 36 -64 36 -58 0
-133 85 -162 184 -19 64 -19 96 0 96 8 0 15 -7 15 -15 0 -19 41 -128 46 -122
2 2 -3 20 -11 40 -32 76 -2 110 34 40 31 -60 76 -118 113 -144 29 -20 28 -17
-13 27 -26 28 -54 65 -63 82 l-17 32 44 0 c40 0 47 -5 112 -71 73 -73 110
-101 160 -118 33 -12 35 -14 -54 44 l-46 30 63 9 c81 12 79 28 -10 66 -37 16
-93 45 -125 66 -77 49 -215 165 -254 214 l-32 40 -146 0 -147 0 -119 -71
c-138 -82 -168 -105 -77 -60 34 18 68 29 73 25 7 -4 -15 -34 -52 -73 -39 -40
-46 -50 -19 -25 116 104 164 135 121 77 -97 -130 -97 -129 -26 -54 39 41 76
82 83 92 7 11 22 24 34 30 17 9 13 -4 -23 -72 -31 -58 -70 -110 -131 -174 -48
-51 -85 -95 -82 -97 3 -3 -15 -63 -39 -132 -24 -69 -42 -126 -40 -126 2 0 28
52 58 117 30 64 70 135 87 158 l32 42 34 -41 c19 -23 41 -55 50 -73 14 -29 13
-34 -6 -65 -34 -54 -91 -103 -182 -155 -47 -27 -97 -57 -113 -67 -20 -14 -26
-15 -22 -4 3 8 -4 61 -15 119 -29 148 -35 234 -20 304 25 124 56 158 222 252
117 67 118 68 81 71 -25 2 -59 -6 -98 -23 -33 -15 -78 -31 -100 -36 -32 -7
-26 -7 30 -4 l70 5 -53 -25 c-76 -36 -123 -44 -240 -45 -118 0 -199 22 -245
68 l-28 28 68 0 c48 0 77 5 98 17 17 10 21 15 10 11 -69 -23 -134 -23 -201 3
-17 6 -17 5 -5 -10 18 -22 1 -22 -42 -1 l-32 17 19 -22 19 -21 -84 -1 -84 -2
66 -9 67 -10 -32 -30 c-30 -29 -34 -30 -96 -25 -41 4 -56 2 -40 -3 14 -4 38
-8 55 -9 28 -1 28 -2 12 -18 -12 -12 -31 -17 -62 -15 -80 3 -153 55 -184 131
-14 32 -31 42 -31 17 0 -18 -65 -75 -105 -92 -28 -11 -60 -15 -142 -14 -35 0
-28 13 38 64 33 26 59 50 56 53 -3 2 -35 -18 -71 -46 -66 -52 -82 -52 -48 -3
30 43 34 52 23 52 -15 0 -62 -85 -56 -102 3 -8 -6 -25 -21 -38 l-26 -25 7 30
c4 17 11 46 16 65 18 69 16 70 -61 70 l-69 0 7 -32 c13 -61 7 -210 -12 -273
-22 -72 -36 -128 -30 -122 3 2 29 37 59 77 67 90 164 192 178 187 5 -1 -18
-31 -52 -66 -89 -91 -166 -189 -218 -278 -25 -43 -42 -69 -38 -58 85 234 102
322 87 445 -6 49 -16 98 -21 107 -9 15 -10 12 -6 -12 2 -16 6 -52 10 -80 l5
-50 -30 53 c-38 65 -48 68 -17 5 25 -50 44 -163 28 -163 -5 0 -12 17 -16 38
-3 20 -23 78 -44 127 l-37 90 -129 3 c-143 3 -145 2 -145 -61 0 -48 -21 -89
-59 -116 -43 -31 -145 -54 -200 -46 -25 4 -65 8 -88 10 -53 3 -63 10 -64 43
-1 23 -3 21 -14 -14 -7 -23 -20 -52 -28 -65 -8 -13 -18 -43 -22 -67 -10 -63
-61 -131 -120 -162 -42 -21 -63 -25 -140 -25 -107 0 -176 26 -226 83 l-31 35
36 15 c34 14 39 13 59 -6 26 -23 100 -62 119 -62 7 0 -9 11 -37 24 -27 13 -59
33 -69 45 -24 26 -20 26 29 1 22 -11 46 -20 55 -20 8 1 0 7 -19 16 -71 31 -73
52 -5 74 31 11 37 9 65 -14 17 -14 36 -26 42 -26 7 0 -3 9 -20 20 -58 35 -45
52 68 84 61 18 128 46 172 72 40 24 77 44 83 44 7 0 29 -19 50 -43 22 -24 35
-36 29 -27 -38 58 -38 60 3 60 38 0 148 28 140 35 -2 2 -26 -2 -53 -11 -78
-23 -126 -2 -97 42 8 13 66 44 102 55 17 5 5 8 -42 8 -38 1 -68 -3 -68 -8 0
-5 -21 -32 -46 -60 -52 -58 -152 -111 -245 -131 l-57 -13 -91 44 c-50 24 -91
47 -91 50 0 10 93 48 205 85 66 22 90 33 70 34 -16 0 -47 -5 -69 -11 -27 -8
-41 -8 -49 0 -17 17 -104 14 -110 -4 -8 -20 -86 -75 -108 -75 -10 0 -31 11
-46 25 l-28 25 25 7 c22 7 20 8 -20 15 -138 23 -135 27 -34 -44 53 -37 135
-82 198 -108 58 -24 106 -47 106 -51 0 -3 -40 -16 -88 -27 -49 -11 -133 -41
-188 -65 -135 -61 -202 -73 -288 -55 -68 14 -99 31 -176 95 -44 37 -94 67
-158 93 -88 36 -127 58 -118 67 2 2 37 -9 77 -26 243 -100 367 -143 419 -147
l55 -3 -53 9 c-30 6 -115 34 -190 64 -76 29 -153 59 -172 65 -19 6 -46 18 -60
26 l-25 14 24 1 c13 0 49 -7 80 -15 147 -38 404 -58 456 -35 13 6 -2 7 -40 3
-121 -11 -462 43 -473 75 -6 19 50 14 413 -32 34 -5 32 -3 -12 8 -28 7 -116
21 -195 31 -78 9 -147 21 -151 25 -10 9 100 31 207 40 63 6 35 7 -119 8 l-200
2 -34 -35 c-19 -19 -42 -35 -53 -35 -17 0 -17 3 8 35 14 19 22 35 16 35 -6 0
-23 -16 -38 -35 -14 -19 -30 -35 -35 -35 -4 0 -1 16 7 35 l14 35 -35 0 c-31 0
-35 -3 -35 -27 l-1 -28 -20 28 -21 27 -144 0 c-108 0 -144 -3 -144 -12z m4493
-335 c4 -3 7 62 7 146 0 128 2 153 16 158 19 7 35 -8 51 -50 l13 -32 -6 33
c-8 45 12 41 26 -5 16 -58 40 -222 40 -279 0 -28 -7 -72 -16 -98 -18 -52 -95
-143 -151 -177 -42 -26 -39 -28 -85 86 -28 70 -32 95 -36 202 -4 118 3 179 30
246 6 15 13 27 17 27 4 0 5 -55 3 -122 -2 -68 1 -141 6 -163 8 -31 9 -17 5 60
-6 112 7 197 41 260 l21 40 6 -163 c3 -89 9 -165 12 -169z m-2086 292 c37 -16
117 -75 110 -82 -3 -2 -33 6 -68 17 -35 12 -91 25 -124 28 -57 7 -60 8 -63 36
l-4 29 57 -7 c31 -3 72 -13 92 -21z m1238 -52 c19 -9 35 -19 35 -23 0 -3 -17
-12 -37 -19 -42 -14 -163 -79 -163 -87 0 -2 18 5 40 16 48 24 125 55 163 64
20 5 27 3 27 -9 0 -8 9 -24 20 -35 20 -20 20 -20 -22 -50 -67 -49 -127 -63
-268 -65 -69 -1 -143 -5 -165 -10 l-40 -8 35 35 c19 19 50 53 68 76 36 46 101
88 177 114 63 22 86 22 130 1z m-1230 -24 c49 -18 54 -23 43 -37 -7 -8 -39
-27 -71 -42 l-58 -26 26 -24 c14 -13 25 -29 25 -36 0 -38 -137 -104 -213 -104
-45 0 -114 27 -135 52 -11 14 -4 15 60 12 67 -3 69 -2 23 5 -28 5 -61 12 -75
16 l-23 7 29 13 c17 7 41 26 55 43 14 16 39 37 55 45 16 8 37 24 47 35 19 20
19 20 64 1 24 -10 50 -19 56 -19 7 1 -3 7 -20 15 -31 13 -43 41 -26 58 13 14
84 6 138 -14z m708 -47 c45 -24 107 -85 107 -104 0 -5 -7 -8 -15 -8 -8 0 -15
-9 -15 -19 0 -29 -69 -37 -145 -17 -76 20 -167 20 -234 0 -29 -8 -56 -13 -59
-9 -3 3 12 23 33 45 44 45 112 65 192 56 l48 -5 -40 10 c-22 6 -60 8 -85 5
l-45 -5 35 16 c19 9 60 19 90 24 l55 8 -61 -3 c-40 -3 -78 -13 -113 -31 -29
-14 -55 -25 -57 -22 -2 2 12 18 31 37 66 64 184 73 278 22z m-392 -5 c-10 -9
-11 -8 -5 6 3 10 9 15 12 12 3 -3 0 -11 -7 -18z m-162 -113 c6 -22 11 -50 10
-64 -1 -24 -1 -24 -14 5 l-14 30 -1 -29 c0 -24 -2 -27 -15 -16 -8 7 -12 16 -9
21 3 5 0 8 -7 7 -21 -5 -39 44 -39 107 l1 60 38 -41 c22 -23 44 -59 50 -80z
m1291 80 c18 -19 -114 -122 -197 -155 -45 -17 -79 -22 -153 -23 -124 0 -153 7
-145 37 5 17 4 19 -4 7 -6 -8 -11 -10 -11 -5 0 13 -20 -17 -20 -30 0 -5 5 -3
11 5 8 12 9 9 4 -10 -16 -62 -17 -279 -2 -381 25 -158 25 -169 15 -244 -17
-128 -142 -469 -268 -730 -32 -68 -25 -4 12 104 l32 93 -32 27 c-28 23 -31 30
-27 66 l5 40 -11 -37 c-6 -21 -15 -38 -19 -38 -8 0 -70 67 -70 75 0 2 9 19 19
37 11 18 35 78 54 133 50 143 50 144 28 105 -11 -19 -28 -57 -37 -83 -16 -47
-16 -47 -33 -28 -10 11 -23 51 -30 89 -12 69 -12 69 18 117 43 68 111 258 98
272 -3 2 -12 -17 -21 -44 -10 -26 -28 -68 -41 -93 l-24 -45 -1 55 c0 69 22
155 60 238 16 34 26 60 21 58 -14 -9 -78 -149 -89 -196 -6 -25 -14 -73 -18
-106 -3 -34 -10 -67 -13 -73 -14 -21 -36 -1 -64 58 -37 77 -117 156 -149 147
-60 -16 -169 -124 -190 -189 -7 -19 -5 -19 10 3 32 46 107 122 150 152 l44 30
29 -28 c86 -82 123 -191 122 -359 0 -128 -19 -212 -66 -297 -35 -65 -47 -55
-23 20 29 92 48 208 51 322 l4 115 -8 -100 c-5 -55 -18 -137 -31 -182 l-22
-81 -58 36 c-47 29 -63 47 -80 85 -11 26 -25 47 -30 47 -8 0 15 59 84 213 14
31 24 57 21 57 -7 0 -107 -203 -134 -272 -27 -66 -63 -107 -103 -115 -24 -5
-27 -9 -22 -32 5 -19 4 -23 -5 -15 -21 19 -61 203 -61 281 0 69 -1 73 -19 63
-17 -8 -27 -1 -72 55 -83 103 -77 78 9 -34 49 -65 49 -65 28 -82 -18 -15 -22
-15 -32 -1 -9 12 -18 4 -55 -52 l-44 -67 -22 68 c-12 37 -22 77 -22 87 -1 11
-4 17 -7 13 -3 -3 4 -53 16 -111 22 -102 22 -107 5 -168 -14 -52 -23 -68 -50
-85 l-34 -22 -12 57 c-7 32 -12 115 -12 187 1 119 0 132 -19 153 -32 34 -43
26 -13 -9 27 -33 27 -24 9 -165 l-6 -47 -66 65 c-80 78 -139 119 -235 163
-118 54 -129 50 -20 -8 181 -95 322 -220 309 -273 -9 -33 -23 -30 -63 14 l-34
37 31 -47 c39 -60 16 -67 -25 -8 -38 55 -149 158 -213 197 -29 18 -52 30 -52
28 0 -2 35 -31 78 -63 127 -97 234 -241 142 -192 -44 24 -150 29 -231 12 l-79
-16 0 -48 0 -48 -37 40 c-31 35 -39 55 -59 146 -13 58 -42 147 -65 197 -46
101 -72 208 -67 274 l3 43 50 -41 c28 -23 88 -60 135 -83 l85 -41 151 0 c167
0 167 0 249 -76 l42 -39 6 43 c10 72 56 182 111 266 l52 78 -33 49 c-35 51
-73 127 -73 144 0 44 120 -77 169 -170 19 -36 54 -95 78 -133 47 -74 48 -78
31 -95 -9 -9 -18 -3 -37 26 -34 51 -123 162 -129 162 -2 0 0 -6 5 -12 6 -7 28
-36 50 -65 52 -66 84 -133 99 -203 l11 -55 31 68 c45 98 153 273 211 341 94
111 171 162 275 186 42 9 54 8 85 -8 59 -31 95 -35 153 -18 29 9 62 23 73 32
l20 17 -20 -8 c-36 -14 -75 -18 -75 -7 0 6 17 14 38 17 20 3 53 10 72 15 19 5
85 11 145 13 132 5 196 25 280 84 45 31 66 41 85 37 14 -3 27 -8 30 -10z
m-1954 -14 c31 0 43 -4 38 -11 -4 -7 0 -9 14 -5 22 7 72 -2 72 -13 0 -14 -88
-51 -120 -51 -39 0 -120 36 -120 54 0 14 40 35 58 30 8 -2 34 -4 58 -4z
m-1532 -145 c0 -110 1 -115 9 -55 15 111 28 116 23 9 -3 -70 -12 -119 -33
-182 -16 -48 -26 -87 -21 -87 4 0 8 6 8 14 0 22 55 73 85 78 29 6 29 4 44
-102 l9 -65 1 71 1 71 46 -10 46 -11 -4 -67 c-3 -53 -11 -82 -42 -143 -21 -42
-40 -76 -42 -76 -4 0 -87 73 -118 105 -16 17 -35 45 -43 64 l-14 34 -37 -35
c-20 -20 -48 -41 -60 -48 -26 -13 -24 -15 -85 74 -61 89 -80 245 -39 324 17
32 28 42 48 42 l25 0 -26 -37 c-14 -21 -25 -49 -24 -63 1 -27 4 -22 13 23 11
47 21 29 22 -41 1 -37 6 -77 11 -90 6 -16 9 2 8 61 0 80 2 88 44 171 25 47 47
86 50 86 3 0 12 -4 20 -9 11 -7 11 -27 -2 -127 -8 -66 -24 -143 -36 -173 -26
-69 -19 -80 10 -15 22 51 59 223 59 274 0 41 10 61 29 58 14 -3 16 -20 15
-123z m158 114 c13 -6 42 -34 65 -62 82 -101 86 -105 53 -44 -17 31 -28 57
-23 58 33 5 102 -11 158 -36 17 -8 50 -22 75 -33 70 -30 89 -58 105 -150 8
-45 28 -118 46 -162 20 -54 29 -90 25 -106 -8 -29 -26 -27 -41 3 -30 60 -92
93 -227 121 -130 28 -188 55 -242 112 -55 59 -85 116 -92 177 l-5 48 35 -65
c20 -35 52 -81 72 -101 41 -42 128 -85 189 -93 l40 -6 -45 14 c-79 23 -118 44
-163 85 -44 41 -98 141 -112 209 -6 28 -4 32 13 32 11 0 30 -12 42 -27 l21
-28 -16 33 c-16 34 -10 39 27 21z m1947 -214 c24 -76 38 -190 22 -181 -6 4
-11 16 -11 26 0 11 -18 76 -40 145 -22 69 -40 131 -40 138 0 24 50 -69 69
-128z m-54 25 c25 -79 55 -214 55 -246 0 -26 -17 -15 -28 19 l-12 32 6 -40 c7
-49 3 -45 -72 75 -32 52 -76 114 -97 137 l-38 41 33 7 c30 7 36 4 75 -41 24
-27 50 -68 59 -91 10 -24 19 -41 21 -39 9 8 -38 100 -77 152 l-38 51 36 21
c20 12 40 18 44 14 3 -4 18 -45 33 -92z m1422 61 c10 -13 5 -20 -30 -39 -40
-22 -36 -22 27 0 22 8 30 8 37 -3 15 -24 11 -27 -43 -34 -97 -12 -126 -26
-209 -99 -45 -39 -84 -71 -88 -71 -4 0 -31 -25 -59 -55 l-51 -55 -1 35 c0 38
22 75 109 183 52 64 57 67 98 67 24 0 43 -4 43 -8 0 -4 -29 -37 -65 -72 -36
-35 -65 -68 -65 -73 0 -14 143 119 194 181 50 60 80 72 103 43z m-2008 -55
c22 -29 90 -98 150 -154 60 -56 123 -122 139 -148 30 -45 33 -80 5 -70 -11 4
-11 1 -2 -15 20 -38 2 -29 -47 24 -183 197 -344 387 -344 407 0 10 30 18 47
12 7 -2 30 -27 52 -56z m171 11 c57 -76 162 -283 158 -314 l-3 -27 -26 40
c-15 21 -66 84 -114 139 -93 107 -151 183 -148 194 2 6 71 19 88 16 6 -1 26
-22 45 -48z m1177 47 c-3 -3 -12 -4 -19 -1 -8 3 -5 6 6 6 11 1 17 -2 13 -5z
m-1255 -118 c12 -16 17 -27 12 -23 -6 3 -32 34 -58 69 -34 45 -37 52 -11 23
19 -22 45 -53 57 -69z m1608 15 c0 -12 -89 -106 -90 -95 0 6 7 33 15 60 14 48
16 50 45 46 16 -2 30 -7 30 -11z m-91 -23 c0 -13 -4 -43 -8 -68 -8 -44 -9 -44
-10 23 0 39 3 67 9 67 6 0 10 -10 9 -22z m-1686 -33 c50 -33 168 -150 186
-184 l13 -24 -34 27 c-51 38 -170 91 -278 121 -52 15 -111 36 -130 46 l-35 18
30 1 c17 1 48 7 70 14 63 20 129 13 178 -19z m-543 4 c0 -12 -12 -49 -27 -83
l-28 -61 -6 55 -6 55 -1 -57 c-1 -34 10 -108 28 -184 19 -81 27 -131 21 -137
-17 -17 -106 83 -130 146 -30 83 -27 124 16 212 l37 75 48 0 c42 0 48 -3 48
-21z m270 -19 c30 -15 89 -38 130 -51 l75 -23 -40 -7 c-36 -6 -34 -6 22 -8 62
-1 121 -19 177 -52 l29 -17 -59 5 c-33 3 -75 0 -94 -5 -31 -9 -29 -10 20 -5
67 6 153 -10 199 -38 39 -24 36 -35 -5 -17 -19 8 -89 12 -204 13 -196 0 -221
7 -296 82 -34 34 -84 123 -84 151 0 19 63 5 130 -28z m3237 23 c14 -42 56
-133 60 -130 2 2 -6 24 -17 48 -11 24 -20 50 -20 57 0 18 49 14 98 -8 34 -16
42 -24 43 -47 0 -15 3 -22 6 -15 10 25 33 12 33 -18 0 -36 -28 -94 -66 -139
l-27 -32 -16 24 c-9 13 -45 48 -81 78 -66 56 -115 132 -108 166 3 13 10 5 24
-27 12 -25 28 -51 36 -58 10 -8 7 4 -8 35 -33 64 -32 83 6 83 20 0 33 -6 37
-17z m-855 -61 c13 -21 14 -32 6 -40 -8 -8 -6 -9 9 -6 16 4 22 -2 31 -34 17
-54 15 -62 -10 -63 l-23 -2 23 -4 c28 -5 28 -19 2 -33 -27 -14 -79 2 -120 37
-24 19 -30 33 -30 63 0 31 7 44 40 74 22 20 44 36 48 36 4 0 15 -13 24 -28z
m439 -52 c17 0 19 -8 20 -72 0 -40 4 -82 8 -93 5 -11 6 21 3 72 l-5 92 42 -11
c22 -6 41 -15 41 -20 0 -6 14 -8 36 -3 l37 6 -5 -48 c-3 -26 -9 -57 -12 -68
-5 -13 -2 -11 8 5 8 14 20 45 26 70 9 40 15 47 47 57 l35 11 -5 -37 c-9 -68
-57 -150 -138 -237 l-79 -83 -16 31 c-9 16 -49 65 -89 108 -45 48 -80 96 -90
124 -19 51 -20 51 11 60 18 5 24 0 39 -39 22 -58 27 -54 12 9 -10 44 -9 50 8
62 11 8 26 12 33 9 8 -3 22 -5 33 -5z m-3054 -59 c32 -47 37 -100 18 -178 -10
-41 -15 -86 -12 -113 5 -43 55 -199 90 -283 23 -54 2 -35 -30 26 -43 85 -65
158 -73 242 -5 48 -18 105 -34 142 -28 66 -34 148 -15 184 13 26 29 20 56 -20z
m2448 -14 c74 -42 54 -78 -64 -113 -25 -7 -72 -29 -103 -48 -47 -28 -58 -31
-63 -18 -3 8 3 24 12 34 10 11 17 22 16 24 -8 11 0 25 30 54 21 22 25 29 11
22 -11 -6 -33 -27 -48 -47 -30 -39 -56 -46 -56 -15 0 26 54 86 99 110 50 26
116 25 166 -3z m-2315 -62 l0 -76 -42 -19 c-23 -10 -46 -16 -50 -14 -18 12 6
81 43 123 22 24 39 48 39 52 0 5 2 9 5 9 3 0 5 -34 5 -75z m-423 1 c18 -19 35
-47 39 -62 10 -39 -21 -128 -52 -148 -23 -16 -30 -16 -87 -1 -68 17 -115 50
-164 114 -32 41 -43 68 -24 57 5 -4 11 -2 13 4 2 6 20 -1 40 -15 64 -44 56
-27 -11 21 -2 2 -1 10 3 19 5 15 9 14 35 -4 39 -28 51 -27 15 1 l-28 23 43 7
c63 11 106 -15 144 -87 9 -16 16 -26 17 -22 1 22 -43 88 -69 103 -38 23 -29
38 18 30 24 -3 47 -17 68 -40z m3008 -47 c-7 -31 -18 -112 -24 -180 -6 -68
-14 -141 -16 -162 l-6 -39 143 4 c128 3 147 5 182 26 21 13 41 21 43 18 3 -3
0 -67 -6 -143 -21 -270 -86 -431 -243 -599 -61 -65 -79 -73 -135 -58 -18 5
-22 15 -28 85 -4 43 -11 82 -16 85 -5 3 26 23 70 45 83 41 155 108 167 154 9
36 -22 76 -72 93 -57 20 -182 10 -277 -22 -91 -31 -94 -31 -76 -10 24 29 122
71 253 108 72 21 141 44 155 52 16 10 19 13 6 9 -11 -4 -80 -20 -153 -36 -74
-16 -157 -39 -185 -49 -29 -11 -55 -20 -59 -20 -21 0 -2 48 57 145 36 59 74
137 85 172 30 98 23 110 -9 16 -16 -45 -52 -121 -82 -168 l-54 -86 -2 48 c-2
26 -5 67 -8 90 l-6 42 -52 3 -52 3 61 62 c34 34 54 58 45 53 -9 -4 -41 -34
-71 -66 -30 -32 -76 -69 -102 -82 -25 -12 -66 -41 -91 -62 -37 -33 -53 -40
-86 -40 -23 0 -41 2 -41 5 0 2 13 41 29 85 64 173 185 279 396 345 75 24 136
51 189 85 44 27 81 49 82 47 1 -1 -3 -27 -11 -58z m840 -9 c27 -60 17 -236
-18 -312 -14 -32 -28 -58 -30 -58 -2 0 0 20 6 45 15 64 -3 117 -48 143 -20 13
-44 40 -59 69 -13 26 -40 64 -60 82 -20 19 -36 38 -36 42 0 16 60 28 142 27
l86 -1 17 -37z m-771 -1 c-2 -4 -13 -9 -24 -12 -16 -4 -20 0 -20 18 0 21 2 22
24 12 13 -7 22 -15 20 -18z m-3344 -60 c43 -53 109 -95 175 -110 51 -11 53
-13 44 -37 -7 -18 -5 -31 7 -49 22 -34 6 -48 -54 -47 -65 1 -155 29 -192 60
-34 29 -64 81 -75 131 -6 33 -6 32 52 -26 33 -32 82 -70 111 -85 70 -36 80
-33 12 4 -52 28 -123 95 -158 149 -15 22 -14 24 3 37 29 21 39 17 75 -27z
m3441 17 c25 -32 148 -122 191 -140 40 -17 78 -79 104 -173 9 -34 20 -60 24
-58 4 3 5 45 2 93 -5 98 4 140 42 187 l25 30 16 -40 c17 -39 17 -110 0 -160
-6 -17 -5 -18 5 -5 9 12 10 9 5 -15 -3 -16 -11 -34 -17 -40 -7 -7 -8 -2 -4 15
l7 25 -15 -25 c-15 -25 -15 -24 -11 15 5 39 5 40 -7 10 -6 -18 -11 -86 -11
-167 1 -177 -15 -187 -31 -20 -6 63 -70 199 -121 257 -35 39 -35 38 8 -30 54
-87 75 -139 83 -210 l7 -55 -34 6 c-49 10 -67 21 -83 52 -17 32 -8 56 14 42
22 -14 30 -12 30 8 0 12 -3 13 -8 5 -6 -10 -13 -9 -31 3 -19 14 -22 24 -20 74
2 51 -1 63 -29 100 -32 45 -115 112 -167 136 -17 8 -22 9 -11 2 112 -75 194
-158 179 -181 -12 -19 -75 -37 -133 -37 -34 0 -59 4 -56 9 3 5 -2 19 -12 32
-10 13 -35 52 -55 85 -64 107 -44 163 68 187 11 3 22 5 24 6 2 0 12 -10 22
-23z m-2741 -26 c0 -34 -22 -40 -55 -17 -17 13 -17 15 6 30 35 25 49 21 49
-13z m14 -81 c11 -58 6 -158 -11 -201 -28 -73 -35 -69 -31 19 1 44 0 76 -4 70
-4 -7 -8 -31 -8 -54 0 -42 -12 -57 -23 -29 -27 71 -13 172 30 205 34 28 39 27
47 -10z m-279 -2 c39 -22 86 -87 100 -137 7 -23 3 -21 -36 15 -45 41 -33 23
37 -55 17 -19 43 -57 58 -85 27 -50 17 -39 -39 44 -47 70 -75 86 -143 82 -107
-6 -123 -5 -150 16 -45 33 -37 71 22 111 57 38 95 41 151 9z m1281 -309 l66
-158 -18 -37 c-10 -21 -30 -67 -45 -103 -23 -54 -36 -70 -77 -97 l-50 -31 -5
33 c-7 42 6 137 32 245 11 47 21 94 21 105 -1 11 -17 -41 -36 -115 -19 -74
-37 -137 -40 -139 -2 -3 -11 2 -20 10 -11 12 -15 40 -15 115 -1 134 19 214 80
323 21 38 26 42 32 25 5 -10 38 -90 75 -176z m-920 127 c4 -15 0 -34 -9 -49
-17 -25 -87 -71 -87 -57 0 32 61 131 81 131 5 0 11 -11 15 -25z m3224 -30 c0
-95 -42 -184 -102 -216 -31 -17 -32 -3 -3 38 l27 38 -33 -38 c-20 -22 -43 -37
-56 -37 -29 0 -29 9 1 52 14 22 19 35 11 35 -7 0 -21 -16 -30 -36 -21 -43 -30
-28 -16 26 16 60 65 118 123 147 69 34 78 33 78 -9z m-4033 -69 c-7 -87 -31
-195 -49 -211 -7 -7 -9 0 -5 25 3 24 -16 253 -23 275 0 0 19 -1 41 -3 l42 -4
-6 -82z m102 78 c29 -6 32 -10 26 -33 -16 -73 -125 -254 -142 -238 -3 3 12 91
43 255 5 23 19 27 73 16z m205 -24 c24 0 77 -56 91 -95 l13 -40 -46 -12 -47
-11 48 -1 c34 -1 47 -5 47 -16 0 -20 -26 -32 -90 -39 -77 -9 -103 6 -111 65
-4 25 -14 61 -24 78 -9 18 -15 34 -13 36 14 15 114 53 116 45 2 -6 9 -10 16
-10z m2663 -142 c-3 -97 -11 -152 -27 -204 -19 -62 -27 -73 -65 -97 -23 -15
-62 -43 -86 -62 -40 -31 -44 -33 -59 -17 -15 15 -12 21 30 78 48 63 115 206
106 227 -2 7 -5 6 -5 -3 -2 -40 -106 -228 -119 -215 -3 3 -15 -4 -27 -15 l-21
-20 -34 29 -34 28 54 87 c30 48 75 110 98 139 l44 52 -47 -50 c-56 -59 -105
-129 -170 -245 -47 -84 -90 -140 -108 -140 -5 0 0 15 11 33 60 100 82 146 69
141 -8 -3 -27 6 -43 19 l-28 25 29 38 c57 75 231 242 275 265 25 13 68 26 95
30 28 3 54 7 59 8 5 0 6 -57 3 -131z m-2497 91 c27 -17 50 -33 50 -36 0 -3
-12 3 -27 13 -24 15 -26 15 -14 1 28 -35 117 -68 203 -76 94 -9 139 -26 209
-77 46 -33 49 -39 49 -80 0 -24 -1 -44 -2 -44 -2 0 -30 11 -63 25 -33 13 -69
24 -80 24 -13 0 -7 -5 16 -14 19 -7 55 -23 79 -35 48 -25 41 -40 -19 -40 -30
0 -33 -2 -26 -22 18 -58 45 -165 45 -182 0 -15 -5 -18 -32 -13 l-33 6 34 -15
33 -15 -7 -57 c-9 -78 -24 -132 -36 -132 -25 0 -108 96 -152 173 -26 47 -67
109 -92 138 -25 29 -55 73 -67 98 -21 43 -129 391 -122 391 2 0 26 -14 54 -31z
m1534 -32 c119 -219 138 -273 156 -463 11 -118 2 -228 -25 -304 -19 -52 -76
-128 -96 -127 -15 1 -14 9 7 71 29 84 26 96 -5 21 -18 -44 -27 -55 -46 -55
-13 0 -30 -3 -39 -6 -14 -6 -14 -2 -1 37 8 23 13 44 11 46 -2 2 -16 -30 -31
-72 -32 -86 -44 -94 -21 -14 30 102 57 294 60 424 2 72 2 108 0 80 -10 -135
-28 -261 -51 -365 -14 -63 -27 -117 -29 -119 -3 -3 -17 -6 -33 -7 -27 -2 -29
1 -35 43 -19 141 1 363 44 487 25 73 20 84 -7 19 -48 -112 -58 -178 -57 -370
0 -101 -2 -183 -5 -183 -3 0 -17 12 -33 26 l-27 27 20 -52 c11 -29 15 -50 9
-46 -5 3 -10 0 -10 -7 -1 -7 -8 0 -17 17 -47 87 -66 291 -39 425 33 162 123
355 222 475 20 25 39 45 43 45 3 0 19 -24 35 -53z m-2150 -17 c49 -59 60 -187
18 -218 -15 -12 -18 -9 -23 30 l-6 43 -1 -47 c-1 -26 -7 -50 -12 -53 -17 -11
-31 46 -39 160 -5 60 -12 118 -16 129 -8 17 -6 17 22 2 17 -8 42 -29 57 -46z
m345 -118 c1 -18 15 -61 32 -95 18 -34 35 -73 38 -86 7 -23 9 -22 45 27 41 56
105 112 129 112 10 0 23 -28 41 -85 34 -109 43 -170 25 -163 -49 18 -55 14
-11 -6 60 -29 66 -38 20 -30 -26 3 -22 0 19 -17 51 -21 51 -22 46 -58 -3 -20
-7 -37 -9 -39 -5 -6 -49 20 -78 47 -57 52 -10 -12 53 -72 l61 -58 -16 -32 c-9
-18 -34 -56 -56 -84 -38 -50 -43 -53 -84 -53 -37 0 -43 3 -38 18 4 12 0 10
-16 -7 -11 -13 -28 -50 -37 -83 -19 -66 -20 -67 -111 -38 -80 25 -145 25 -199
0 -49 -22 -56 -14 -15 17 49 36 87 51 193 78 57 14 121 33 143 41 21 8 41 13
44 10 6 -6 62 25 62 35 0 4 -19 2 -42 -3 -44 -10 -130 -12 -159 -3 -15 5 -14
12 8 65 29 74 45 157 40 213 l-4 42 -1 -50 c-2 -57 -23 -142 -48 -198 -13 -28
-23 -37 -38 -35 -33 5 -41 82 -21 193 9 50 15 106 13 125 -5 34 -5 34 -6 -7
-1 -28 -8 -46 -21 -55 -10 -7 -21 -23 -25 -36 -5 -13 -10 -21 -12 -19 -3 3 2
22 10 42 14 32 14 36 1 25 -19 -16 -41 -95 -54 -198 -13 -102 -49 -182 -126
-274 -49 -60 -60 -68 -89 -68 -19 0 -37 6 -39 13 -4 8 -6 7 -6 -3 -1 -9 -8
-25 -16 -37 -15 -21 -16 -22 -60 -5 -25 9 -45 20 -45 24 0 4 19 21 42 38 45
33 41 41 -8 11 -28 -17 -33 -17 -67 -4 -20 9 -37 18 -37 22 0 18 61 101 91
124 19 14 65 38 103 53 88 35 176 94 212 142 28 37 28 37 -22 -8 -27 -25 -66
-56 -86 -68 -40 -25 -178 -75 -178 -64 0 3 -24 -18 -54 -47 -42 -42 -58 -52
-75 -46 -11 3 -21 11 -21 16 0 18 42 93 85 155 88 123 182 181 339 208 105 18
128 31 37 21 l-63 -7 7 43 c4 24 22 79 40 122 18 42 31 77 28 77 -10 0 -73
-150 -79 -187 -3 -22 -9 -44 -13 -49 -6 -9 -89 -34 -111 -34 -6 0 -10 26 -11
58 -1 43 -3 51 -9 32 -4 -14 -8 -44 -9 -66 -1 -60 -27 -66 -36 -9 -18 126 44
231 183 305 74 39 138 92 148 123 7 19 9 17 15 -18 4 -22 8 -55 8 -73z m1057
53 c84 -41 242 -183 274 -246 16 -31 60 -171 60 -189 0 -3 -14 20 -31 50 -16
30 -35 59 -41 65 -5 5 5 -17 23 -49 l33 -59 -23 -18 c-33 -27 -60 -23 -98 13
-18 17 -63 52 -100 77 -58 40 -69 52 -78 88 -12 51 -25 66 -25 29 0 -24 -7
-18 -59 51 -33 43 -74 92 -93 108 l-33 30 27 -30 c31 -36 128 -176 128 -186 0
-4 -26 1 -57 11 -32 10 -82 21 -110 25 -51 7 -53 8 -63 46 -11 38 -32 201 -27
205 11 11 105 22 155 20 49 -3 82 -13 138 -41z m1059 -147 c43 -94 55 -268 25
-369 -9 -31 -14 -36 -34 -32 -35 7 -69 42 -63 65 5 16 3 17 -10 6 -15 -12 -16
-9 -10 27 4 22 9 51 13 65 4 18 1 16 -10 -8 -22 -48 -41 -36 -41 25 0 28 -3
49 -7 46 -5 -2 -8 2 -9 9 0 7 -4 36 -9 63 -9 56 -5 66 63 147 39 46 41 47 54
28 8 -11 25 -44 38 -72z m-2586 -79 c36 -67 61 -156 61 -219 0 -62 -51 -126
-105 -132 -35 -4 -35 -4 -35 35 0 39 -72 267 -78 248 -2 -5 10 -53 27 -106 20
-62 31 -116 31 -155 0 -67 -3 -69 -72 -48 -49 15 -55 35 -34 135 8 42 14 78
12 80 -2 2 -14 -33 -27 -78 l-23 -81 -23 26 c-27 31 -39 33 -48 6 -19 -61 -40
39 -25 120 15 79 42 121 134 204 56 51 86 85 86 99 1 18 8 14 45 -28 24 -27
58 -75 74 -106z m3637 69 c34 -34 28 -64 -27 -123 -40 -43 -143 -104 -156 -92
-5 5 26 97 56 171 4 10 -192 2 -243 -10 -40 -9 -26 10 25 36 68 35 139 50 231
47 80 -2 90 -4 114 -29z m-167 -74 c8 -7 -53 -167 -85 -220 -52 -87 -71 -103
-156 -124 -41 -11 -105 -31 -141 -45 -37 -14 -70 -25 -74 -25 -4 0 6 13 22 30
28 29 85 53 160 66 34 6 36 8 17 15 -28 11 -28 26 0 58 14 16 8 13 -13 -6 -38
-36 -73 -42 -105 -19 -18 14 -17 17 26 61 25 26 71 63 103 82 71 45 74 53 5
16 -29 -15 -81 -56 -115 -89 l-62 -62 -24 32 c-32 41 -22 63 57 123 114 86
233 127 336 115 25 -3 47 -6 49 -8z m-2093 -40 c183 -46 383 -193 485 -354 60
-94 151 -261 146 -267 -3 -3 -27 27 -53 66 -26 39 -49 71 -51 71 -2 0 -1 -5 2
-10 4 -6 4 -18 1 -27 -5 -12 -20 4 -57 57 -139 202 -287 319 -483 379 -99 31
-114 25 -22 -9 227 -85 404 -229 512 -417 17 -30 17 -33 1 -51 -17 -18 -20
-16 -100 62 -45 45 -98 92 -117 105 -26 17 -20 8 22 -32 104 -100 151 -159
136 -168 -24 -16 -44 -9 -92 27 -58 44 -73 39 -17 -6 22 -18 38 -37 34 -43 -3
-6 -1 -7 5 -3 7 4 12 3 12 -3 0 -5 8 -12 18 -15 9 -3 31 -17 47 -31 l30 -24
-53 20 c-29 10 -88 37 -130 58 -42 21 -83 36 -90 34 -7 -3 -11 -1 -10 4 2 5
-37 47 -87 93 l-90 84 76 -80 c42 -43 75 -83 73 -89 -2 -5 42 -41 98 -80 131
-91 144 -102 136 -110 -3 -4 -19 1 -35 10 l-28 17 28 -26 c16 -15 27 -30 25
-36 -2 -5 -42 24 -91 64 -85 71 -191 137 -218 135 -8 0 6 -9 30 -20 56 -25
155 -96 201 -144 34 -36 35 -37 15 -51 -25 -18 -42 -14 -164 38 -52 22 -129
51 -170 65 -42 14 -101 38 -132 54 -31 15 -59 25 -62 22 -7 -7 -110 89 -140
131 -20 28 -20 29 -1 43 28 21 128 12 189 -17 l50 -24 -40 -6 c-35 -6 -31 -7
30 -9 39 -1 109 -12 158 -25 48 -12 84 -19 80 -16 -165 131 -244 248 -297 438
-14 49 -30 102 -36 117 l-11 28 90 -7 c49 -4 115 -13 147 -22z m2524 -119 c74
-37 135 -98 170 -168 36 -71 37 -86 9 -121 -20 -25 -22 -26 -36 -9 -9 12 -13
13 -11 4 3 -8 -3 -22 -11 -31 -15 -15 -21 -14 -74 2 -33 10 -67 18 -78 18 -26
0 -24 12 6 40 26 25 33 50 13 50 -7 0 -43 21 -81 46 -51 35 -67 50 -62 63 4 9
13 40 20 70 24 90 27 91 135 36z m-916 -42 c-7 -21 -13 -53 -14 -71 0 -67 -33
-189 -68 -257 -53 -105 -250 -298 -353 -348 -41 -20 -90 -38 -109 -41 -32 -6
-33 -5 -10 5 94 43 149 73 175 95 31 27 20 24 -25 -6 -20 -13 -29 -14 -47 -5
-22 11 -22 11 9 30 37 21 213 168 246 205 24 27 97 169 107 210 4 14 -13 -13
-36 -59 -49 -96 -159 -220 -269 -301 -62 -46 -71 -50 -92 -39 -13 6 -25 14
-28 16 -2 2 25 31 60 64 l65 60 -63 -45 c-61 -44 -92 -50 -92 -19 0 13 -2 13
-16 2 -34 -28 51 95 97 141 27 27 97 81 156 120 122 81 133 90 83 65 -121 -61
-258 -168 -305 -239 -34 -51 -40 -55 -48 -25 -4 14 5 33 31 62 l37 42 -38 -29
c-21 -15 -40 -26 -43 -24 -2 3 13 31 34 64 84 129 250 246 451 318 41 15 81
31 90 36 27 16 29 12 15 -27z m1354 -13 c-10 -29 -48 -62 -48 -41 0 9 48 71
55 71 2 0 -1 -14 -7 -30z m220 12 c42 -12 21 -27 -70 -49 -97 -24 -156 -53
-231 -115 -27 -22 -51 -38 -54 -35 -13 14 38 76 101 124 90 68 182 95 254 75z
m-322 -103 c-33 -39 -76 -117 -76 -139 0 -5 -9 -14 -20 -20 -17 -9 -20 -8 -20
8 0 34 54 126 99 171 54 52 67 38 17 -20z m-410 -55 l29 -23 -45 0 c-25 -1
-50 3 -57 7 -12 7 -33 54 -33 73 0 12 65 -23 106 -57z m-256 -24 c73 -17 118
-21 196 -18 l102 3 -43 -47 c-23 -26 -64 -83 -90 -125 -55 -90 -104 -145 -160
-180 -45 -30 -176 -85 -183 -78 -3 2 -5 21 -6 41 -1 35 1 38 41 51 38 13 41
16 28 30 -21 21 -12 30 40 37 25 4 45 12 45 18 0 6 -27 42 -60 79 l-60 67 27
10 c27 9 26 10 -12 9 -51 0 -149 37 -153 57 -4 17 -5 17 -109 -9 -46 -11 -54
-11 -67 4 -22 24 -20 30 12 43 108 44 284 47 452 8z m-2577 -100 c-17 -30 -17
-32 0 -62 10 -17 15 -33 13 -36 -3 -2 -25 1 -50 7 -25 6 -64 11 -88 11 l-43 1
39 34 c39 35 111 75 134 75 10 0 8 -8 -5 -30z m2372 -3 c17 -9 41 -25 55 -36
l24 -19 -24 -21 -25 -20 23 -1 c28 0 79 -28 86 -47 4 -9 -5 -13 -27 -13 -61
-1 -132 -35 -220 -105 -48 -39 -115 -87 -149 -108 -70 -42 -232 -98 -281 -96
-20 1 -25 3 -12 6 11 2 50 13 87 24 l66 19 -29 30 -30 29 -47 -18 c-26 -10
-63 -21 -82 -25 l-35 -7 35 20 c19 11 57 28 83 37 43 14 48 19 44 41 -4 22 6
29 134 94 77 38 139 71 139 73 0 4 -144 -48 -214 -78 -49 -21 -51 -20 -63 6
-8 20 -5 27 26 52 59 47 152 85 247 101 l89 15 -77 -5 c-84 -5 -160 -29 -231
-75 -54 -34 -67 -37 -67 -14 0 37 144 130 238 154 57 14 202 7 237 -13z m1168
-25 l20 -21 -84 -41 c-74 -37 -90 -41 -134 -36 -27 3 -76 9 -108 12 -32 4 -56
11 -54 17 5 17 107 70 161 83 73 19 173 12 199 -14z m133 -104 c14 -27 13 -30
-24 -77 -45 -56 -85 -149 -103 -240 l-13 -63 -42 4 c-23 2 -42 1 -41 -2 1 -3
-5 -37 -12 -77 -8 -39 -11 -88 -8 -110 4 -21 8 -47 9 -57 6 -41 -21 -24 -46
28 -37 79 -49 146 -44 255 7 140 30 193 133 300 45 47 88 97 95 110 l12 23 35
-33 c19 -19 41 -46 49 -61z m-511 12 c120 -7 182 -27 223 -73 25 -26 24 -45
-3 -81 -12 -16 -17 -17 -32 -6 -17 13 -17 13 -2 -4 15 -16 15 -21 -1 -64 -10
-26 -23 -73 -30 -104 -6 -32 -15 -60 -19 -62 -9 -6 -85 64 -125 114 -19 24
-24 27 -15 10 6 -14 38 -55 70 -91 33 -37 59 -73 59 -80 0 -8 -14 -37 -30 -66
-36 -62 -52 -62 -110 5 -56 63 -79 144 -87 302 -4 83 -12 141 -24 173 -16 45
-16 48 -1 41 9 -4 67 -10 127 -14z m-177 -21 c32 -13 43 -23 40 -36 -2 -10
-11 -16 -19 -14 -91 25 -118 31 -145 31 -24 0 -34 6 -43 26 l-12 26 68 -7 c37
-4 87 -15 111 -26z m-3568 -2 c0 -24 -77 -88 -136 -113 -44 -18 -50 -23 -24
-18 56 11 76 21 118 58 l39 36 7 -62 c20 -199 -2 -231 -134 -192 -62 18 -144
23 -179 10 -17 -6 -21 -5 -17 3 14 22 87 51 177 72 68 16 99 29 123 50 l31 29
-50 -25 c-27 -14 -82 -30 -122 -36 -50 -7 -89 -21 -127 -44 -49 -29 -54 -31
-44 -12 7 12 11 28 10 35 -7 33 173 173 261 204 63 21 67 21 67 5z m539 -16
c24 -33 17 -40 -42 -43 -18 0 24 -4 93 -8 99 -5 135 -11 170 -28 51 -24 116
-84 143 -131 l18 -31 -93 0 c-188 0 -346 30 -463 86 -29 15 -42 18 -30 8 32
-26 124 -64 205 -85 51 -13 127 -22 238 -26 175 -7 182 -10 147 -60 -25 -36
-79 -47 -233 -48 -104 0 -132 -2 -100 -8 24 -5 94 -6 157 -3 l114 5 -25 -26
c-46 -46 -242 -55 -371 -16 -89 26 -161 86 -212 178 -59 104 -97 155 -153 200
-31 26 -48 45 -37 42 135 -39 226 -40 335 -4 100 33 114 33 139 -2z m-404
-155 c-14 -21 -25 -26 -48 -24 -43 4 -64 40 -72 123 l-6 70 71 -71 72 -71 -17
-27z m3415 122 c47 -14 60 -26 60 -54 0 -29 -1 -29 -52 -3 -23 12 -64 28 -92
36 -84 23 -82 23 -66 33 16 10 98 3 150 -12z m-1746 -4 c8 -21 -1 -34 -25 -34
-12 0 -19 7 -19 18 0 34 33 45 44 16z m-894 -86 c102 -60 183 -94 262 -110 43
-9 54 -14 40 -19 -25 -9 -88 5 -165 37 -74 31 -230 123 -272 160 l-30 27 40
-23 c22 -13 78 -45 125 -72z m828 80 c16 -16 15 -43 -2 -57 -10 -9 -16 -8 -26
4 -16 19 -30 19 -30 1 0 -24 -18 -28 -30 -6 -9 17 -6 24 14 45 27 27 55 32 74
13z m-181 -34 c3 -8 -2 -23 -11 -32 -15 -15 -17 -15 -32 -1 -14 15 -14 18 1
33 21 20 34 20 42 0z m339 1 c8 -19 -9 -68 -24 -73 -7 -2 -12 6 -12 17 0 13
-10 26 -26 33 -24 11 -25 13 -8 25 24 17 63 16 70 -2z m1599 -4 c80 -28 115
-56 115 -92 0 -35 -1 -35 -115 -4 -49 14 -100 25 -113 25 -24 0 -25 4 -1 68
11 28 41 29 114 3z m-1855 -42 c23 -31 23 -37 -4 -124 l-15 -50 2 72 c2 79
-10 106 -38 83 -13 -11 -15 -9 -15 12 0 48 38 52 70 7z m176 10 c15 -16 19
-42 24 -132 5 -108 6 -111 19 -79 12 28 75 82 96 82 3 0 5 -14 5 -31 0 -26 -3
-30 -19 -26 -20 5 -72 -42 -126 -115 -15 -21 -31 -38 -36 -38 -5 0 -1 17 9 38
41 81 45 108 27 183 -15 61 -35 100 -35 69 0 -6 -4 -8 -10 -5 -14 9 -13 48 2
63 16 16 22 15 44 -9z m-65 -51 c22 -41 -6 -308 -32 -308 -11 0 -11 8 2 129 6
54 9 110 7 123 -3 22 -5 21 -22 -11 -26 -49 -46 -120 -47 -171 l-1 -45 -11 34
c-14 44 4 175 33 231 23 45 52 53 71 18z m213 16 c26 -10 40 -43 26 -59 -10
-12 -15 -11 -29 7 -17 20 -19 20 -51 5 -18 -10 -35 -17 -37 -17 -10 0 0 27 19
47 22 23 43 28 72 17z m-396 -26 c2 -11 -8 -20 -32 -28 -45 -14 -46 -28 -4
-32 37 -4 52 -28 17 -28 -13 0 -33 -9 -45 -21 -33 -31 -61 -8 -29 24 13 13 13
16 0 21 -26 10 -17 45 18 66 37 23 70 23 75 -2z m-1944 -25 c-16 -47 -17 -91
-3 -148 18 -71 11 -79 -42 -46 -31 20 -50 26 -60 20 -25 -15 -38 -10 -42 19
-4 26 -4 26 -6 -4 -1 -36 -15 -44 -72 -44 -41 0 -46 7 -28 43 10 21 9 21 -10
-2 -25 -28 -25 -26 -6 30 33 91 79 130 188 153 98 22 97 22 81 -21z m3821 22
c38 -8 91 -22 117 -31 46 -15 48 -17 48 -55 0 -21 -3 -39 -6 -39 -3 0 -20 11
-36 25 -42 36 -91 59 -176 85 -39 12 -72 24 -72 26 0 8 57 3 125 -11z m-3285
-35 c46 -24 69 -58 49 -72 -123 -82 -221 -121 -290 -116 l-44 3 60 42 c33 23
84 70 113 103 29 33 58 60 63 60 5 0 27 -9 49 -20z m3247 -5 c73 -23 157 -68
181 -98 7 -9 5 -28 -7 -64 l-18 -52 41 -7 c23 -3 58 -15 79 -26 39 -19 167
-143 167 -160 0 -10 -2 -9 -62 28 -70 44 -161 66 -253 63 -48 -2 -89 -9 -96
-16 -10 -10 -4 -10 27 -1 90 24 240 -8 340 -75 l49 -32 -50 -3 c-27 -2 -68 2
-92 7 -23 6 -100 11 -171 11 -126 0 -129 0 -153 26 -24 26 -24 26 -1 15 12 -6
22 -8 22 -4 0 5 -13 14 -30 20 -56 21 -50 51 22 103 l38 28 -41 6 c-55 9 -80
23 -73 41 4 9 0 15 -9 15 -18 0 -77 47 -77 62 0 5 7 25 16 44 l16 33 71 -62
c40 -34 88 -73 107 -87 19 -13 38 -28 41 -33 4 -5 12 -8 19 -5 7 2 -18 27 -56
55 -38 29 -90 73 -116 100 -39 40 -45 52 -37 71 10 27 11 27 106 -3z m-1797
-67 c0 -45 -3 -78 -6 -75 -11 11 -24 109 -18 134 13 48 24 20 24 -59z m320 52
c-8 -6 -24 -16 -35 -22 -20 -11 -20 -11 -1 11 11 11 26 21 35 21 14 0 14 -2 1
-10z m1182 -50 c31 -11 67 -29 80 -40 23 -18 22 -18 -32 -4 -60 16 -105 11
-133 -14 -10 -9 -34 -47 -54 -84 -37 -71 -101 -138 -165 -172 -41 -22 -105
-17 -154 13 -33 20 -96 118 -69 107 8 -3 14 0 12 7 -1 7 14 13 41 15 38 3 41
5 27 19 -9 8 -15 27 -13 41 2 20 12 28 43 38 30 9 34 12 16 13 -23 1 -23 2 -8
19 10 10 14 21 11 24 -3 4 27 13 68 22 40 8 82 17 93 20 45 11 182 -3 237 -24z
m-1758 -5 c43 -7 82 -17 87 -22 4 -4 -41 -6 -101 -5 -85 3 -127 -1 -192 -17
-94 -23 -234 -89 -263 -122 -17 -19 -14 -18 16 4 47 36 151 82 227 102 83 21
209 30 252 17 31 -9 24 -10 -55 -12 -49 -1 -101 -5 -115 -10 -14 -4 16 -5 66
-2 94 5 134 -5 134 -33 0 -12 -15 -15 -62 -16 l-63 -2 63 -10 c38 -6 61 -14
59 -21 -4 -12 -48 -20 -227 -41 l-125 -14 120 6 c217 11 255 11 255 2 0 -10
-47 -23 -168 -45 -51 -9 -91 -19 -88 -21 5 -5 135 10 201 24 28 5 29 4 15 -13
-15 -18 -14 -18 13 -1 16 10 36 17 45 15 28 -6 -168 -98 -236 -110 -71 -13
-110 -8 -328 45 l-131 32 48 71 c26 39 63 84 81 99 51 43 145 83 233 99 103
18 142 18 239 1z m216 -20 c0 -14 -4 -25 -9 -25 -5 0 -21 -4 -36 -10 -25 -9
-25 -11 -10 -40 20 -38 82 -80 120 -80 25 -1 27 -2 13 -11 -44 -25 -140 34
-169 102 -12 30 -11 33 12 50 13 11 29 23 34 28 20 20 45 12 45 -14z m347 -42
c-9 -15 -27 -39 -42 -53 l-28 -25 18 35 c25 49 59 93 63 81 2 -5 -3 -22 -11
-38z m-1744 -12 c-5 -43 -1 -59 33 -128 65 -132 59 -249 -18 -321 l-25 -22
-34 23 c-34 23 -39 41 -25 82 5 15 4 14 -7 -4 -13 -21 -14 -16 -12 55 1 44 1
61 -2 39 -2 -22 -8 -64 -14 -94 l-11 -55 -15 35 c-8 19 -22 57 -30 84 -8 28
-28 74 -44 102 l-29 52 32 37 c18 20 67 61 110 91 43 30 80 59 83 64 12 18 14
8 8 -40z m2162 24 c109 -31 184 -103 255 -245 23 -47 53 -100 66 -117 l25 -32
-24 -6 c-13 -4 -27 -5 -33 -4 -5 2 -81 -3 -169 -10 -191 -16 -278 -7 -390 40
-88 36 -140 72 -182 126 l-31 39 30 13 c23 10 39 11 64 3 41 -12 37 0 -6 18
-16 7 -27 16 -24 21 13 21 68 5 167 -46 133 -70 153 -72 27 -3 -75 42 -90 53
-72 56 44 7 195 -19 286 -48 50 -16 92 -27 94 -25 2 2 -19 16 -48 30 -70 36
-187 64 -295 72 -79 6 -85 8 -50 14 93 18 219 4 283 -30 12 -6 22 -9 22 -6 0
3 -21 16 -47 28 -38 17 -75 22 -178 27 l-130 6 40 18 c26 12 77 21 145 26
l105 7 -95 1 c-53 1 -118 -4 -145 -12 -48 -12 -51 -12 -52 5 -1 14 9 22 39 30
112 30 226 31 323 4z m-2549 -13 c-23 -44 -41 -55 -73 -45 -15 5 -28 14 -27
19 1 13 75 54 97 54 16 0 16 -2 3 -28z m3449 -33 c30 -11 55 -24 55 -28 0 -9
-96 -66 -145 -85 -68 -27 -175 -55 -175 -46 0 5 9 28 19 53 22 50 48 72 106
89 29 8 35 13 20 16 -11 2 -24 8 -29 13 -19 18 94 9 149 -12z m-3605 -126 c31
-66 26 -127 -17 -223 -39 -87 -62 -96 -38 -15 9 27 14 53 12 58 -1 5 -11 -16
-20 -47 -17 -53 -20 -56 -45 -50 -15 4 -31 10 -35 14 -5 4 5 47 22 95 17 47
31 90 30 93 0 4 -17 -29 -38 -73 l-38 -80 -7 70 c-12 113 -14 108 -11 -18 2
-65 6 -121 9 -124 3 -4 6 -14 6 -23 0 -13 -12 -19 -42 -24 -56 -9 -70 9 -66
82 2 28 2 52 0 52 -2 0 -8 -13 -13 -30 -26 -72 -58 -5 -45 92 4 29 19 76 33
106 25 53 35 63 148 136 l50 33 42 -40 c24 -23 52 -60 63 -84z m2265 67 c-3
-5 -12 -10 -18 -10 -7 0 -6 4 3 10 19 12 23 12 15 0z m-2148 -12 c9 -12 43
-124 43 -141 0 -4 -8 -7 -17 -7 -10 0 -37 -9 -59 -19 l-42 -19 -5 47 c-10 79
-11 84 -37 110 l-25 26 60 6 c33 3 63 6 66 7 4 1 11 -4 16 -10z m3544 -66 c19
-21 48 -59 66 -85 18 -25 53 -59 77 -75 l46 -28 -47 -2 c-35 -1 -66 -14 -137
-56 -50 -30 -111 -59 -135 -66 l-43 -11 64 -67 c35 -37 78 -90 96 -118 18 -29
51 -64 73 -80 38 -26 39 -28 20 -39 -11 -6 -43 -36 -71 -67 -68 -76 -136 -109
-225 -110 -92 0 -102 10 -85 92 13 61 13 62 43 56 38 -8 175 -18 162 -12 -5 3
-40 7 -77 11 -36 3 -74 12 -84 19 -16 12 -16 14 3 33 16 16 24 18 33 9 10 -9
10 -6 2 10 -11 20 -8 23 33 34 42 12 108 10 165 -5 23 -6 24 -6 7 8 -10 9 -40
21 -66 27 -42 10 -60 8 -149 -14 -61 -16 -128 -26 -172 -26 l-71 0 22 29 c17
23 20 38 16 66 -5 32 -4 36 11 30 9 -3 31 -8 47 -11 20 -3 14 2 -18 14 -67 25
-95 53 -89 91 2 17 9 31 16 31 27 0 122 -31 184 -59 37 -17 58 -24 47 -15 -33
26 -87 51 -159 74 l-67 22 6 37 6 38 -70 12 c-39 7 -73 16 -76 20 -2 4 1 24 7
43 10 34 12 35 42 28 17 -5 56 -11 86 -14 42 -4 47 -3 22 3 -41 11 -66 31 -36
31 31 -1 88 -25 130 -54 38 -28 38 -28 11 -2 l-28 26 28 0 c15 0 35 5 43 10
11 7 3 10 -30 11 -25 0 -53 4 -63 8 -18 6 -18 7 0 23 10 9 64 28 120 43 56 15
124 35 150 45 67 26 76 25 114 -18z m-3362 -7 c38 -44 57 -87 71 -167 15 -79
6 -132 -25 -152 -23 -15 -24 -15 -18 1 4 12 0 11 -11 -4 -23 -30 -33 -29 -55
7 -10 16 -20 28 -22 25 -3 -2 -3 12 -1 31 3 20 11 38 18 41 10 4 11 10 4 23
-13 24 -13 67 0 75 6 4 19 1 28 -6 9 -8 6 0 -8 16 -39 48 -43 51 -32 30 7 -13
7 -25 0 -39 -6 -11 -12 -42 -13 -70 -3 -82 -35 -139 -97 -179 -58 -38 -92 -40
-61 -4 18 21 18 21 -8 5 -20 -13 -29 -14 -48 -4 l-22 12 33 44 c18 25 52 58
74 75 89 66 96 74 34 36 -36 -22 -67 -36 -68 -30 -2 5 1 23 7 40 5 16 7 28 2
25 -4 -3 -16 -30 -26 -61 -23 -67 -44 -89 -73 -78 -20 8 -20 9 9 84 24 63 37
81 69 103 21 14 54 28 72 31 46 8 52 18 38 60 -13 40 -8 51 30 58 56 10 68 6
99 -28z m1622 -30 c-68 -72 -101 -143 -99 -215 l1 -55 7 65 c3 36 16 84 28
107 29 56 88 114 107 107 13 -5 12 -11 -5 -38 -41 -60 -62 -119 -66 -180 l-3
-61 9 58 c11 67 42 142 72 174 32 34 38 28 21 -24 -22 -68 -21 -245 0 -298 17
-40 17 -40 9 -5 -15 71 -8 252 11 303 25 64 47 63 47 -2 0 -74 19 -199 38
-246 21 -50 104 -196 109 -191 3 2 -16 45 -42 95 -25 50 -52 117 -60 148 -17
64 -21 253 -5 253 9 0 15 -18 39 -115 10 -39 10 -39 5 13 -2 28 -2 52 1 52 2
0 20 -31 39 -69 37 -72 63 -148 95 -271 23 -88 28 -71 6 22 -29 126 -80 253
-127 321 -11 16 -17 31 -14 35 9 8 50 -43 99 -121 20 -33 37 -56 37 -51 0 6
-25 49 -55 98 -30 48 -55 91 -55 97 0 34 64 -36 125 -136 79 -132 101 -268 69
-435 -12 -67 -46 -176 -58 -188 -2 -1 -41 35 -87 81 -46 46 -136 122 -199 169
-127 94 -204 170 -226 223 -42 102 12 235 125 307 25 15 47 28 49 28 3 0 -18
-25 -47 -55z m-1046 -53 c4 -35 2 -37 -26 -22 -19 11 -24 35 -13 65 10 24 33
-2 39 -43z m325 -12 c29 -21 65 -59 59 -63 -2 -2 -25 -16 -52 -31 -26 -15 -82
-56 -125 -92 -42 -36 -94 -74 -114 -85 -40 -20 -93 -25 -103 -9 -3 6 -2 10 4
10 5 0 17 35 27 78 9 42 26 94 37 114 51 92 189 132 267 78z m3368 4 c20 -14
22 -24 22 -97 -1 -52 -5 -88 -14 -99 -12 -16 -15 -14 -31 22 -26 58 -28 43 -4
-29 11 -35 18 -65 16 -68 -3 -2 -28 31 -56 73 -47 71 -51 83 -51 136 0 51 3
60 23 68 34 14 70 12 95 -6z m-3773 -66 c-4 -13 -10 -26 -14 -29 -9 -10 -142
-52 -147 -47 -2 3 -1 19 2 36 8 38 51 58 132 61 30 1 33 -1 27 -21z m845 8 c0
-3 -20 -19 -45 -37 l-45 -32 32 -27 31 -27 -55 -65 c-59 -70 -102 -137 -112
-178 -4 -14 8 2 26 35 18 32 67 95 109 139 l75 80 32 -46 c18 -26 32 -53 32
-60 0 -24 -81 -93 -186 -161 -56 -36 -105 -70 -108 -76 -10 -16 202 115 251
155 36 30 44 33 49 19 8 -21 -17 -47 -136 -146 -52 -43 -123 -103 -157 -134
l-62 -56 -15 29 c-23 44 -39 158 -33 222 17 155 85 245 262 342 54 30 55 30
55 24z m-282 -45 c15 -49 15 -61 -1 -61 -12 0 -104 -51 -221 -123 -33 -21 -55
-37 -50 -37 6 0 53 25 105 56 104 62 179 98 187 89 4 -3 -3 -22 -13 -42 -15
-27 -34 -42 -78 -61 -66 -29 -71 -40 -7 -17 24 8 45 13 47 11 3 -2 -2 -17 -11
-34 -25 -49 -118 -63 -268 -41 -48 7 -87 7 -113 1 l-40 -10 35 -1 35 -2 -33
-29 c-18 -17 -41 -30 -51 -30 -25 0 -127 69 -176 119 -29 31 -35 41 -22 41 31
0 79 31 139 88 53 50 58 53 58 31 0 -45 -21 -98 -45 -117 l-24 -19 25 -12 c35
-16 90 -14 127 5 18 9 68 47 112 83 109 91 136 109 197 131 72 25 73 25 86
-19z m2530 27 c7 -7 32 -11 56 -9 24 1 46 -1 48 -6 10 -17 -13 -93 -28 -93 -8
0 -13 -4 -10 -9 3 -5 -1 -14 -9 -21 -21 -18 -19 -28 8 -32 16 -2 21 -9 19 -23
-2 -11 -5 -21 -6 -22 -1 -1 -49 -12 -106 -24 -58 -12 -114 -24 -126 -26 -16
-4 -23 1 -27 19 -9 33 26 64 104 93 35 13 56 24 47 24 -10 1 -40 -8 -68 -19
-28 -11 -52 -20 -54 -20 -7 0 7 45 21 67 17 26 94 58 123 50 29 -7 25 13 -7
40 -19 15 -23 22 -12 23 8 0 20 -5 27 -12z m470 -8 c68 -24 78 -34 128 -125
l38 -70 -39 31 c-22 18 -49 41 -59 53 -11 12 -24 21 -30 21 -6 -1 34 -43 89
-95 55 -51 97 -96 94 -100 -4 -3 -50 28 -103 69 -105 83 -133 99 -214 127 -78
27 -89 23 -16 -5 92 -36 134 -60 189 -110 l50 -45 -64 25 c-35 14 -65 23 -67
21 -2 -2 28 -17 66 -32 110 -44 102 -58 -15 -31 -33 8 -61 13 -63 11 -4 -3 75
-27 153 -46 91 -22 77 -31 -40 -27 -133 5 -187 26 -284 113 -74 66 -94 75
-162 75 l-49 0 74 68 c40 38 88 73 107 79 57 18 154 15 217 -7z m-3570 -47
c-3 -19 -97 -51 -152 -52 -46 -1 -19 17 65 44 90 29 91 29 87 8z m2 -42 c0
-30 -144 -99 -177 -87 -7 3 -13 17 -13 30 0 21 6 26 38 32 20 3 60 12 87 19
64 17 65 17 65 6z m2239 -21 c23 -11 60 -34 81 -50 43 -34 100 -114 100 -140
0 -9 -22 -40 -49 -68 -73 -76 -180 -102 -282 -67 -52 18 -104 54 -77 55 9 0
27 -4 40 -9 40 -15 128 -23 128 -11 0 5 -13 10 -28 10 -16 0 -52 7 -81 16 -39
11 -54 21 -61 40 -10 25 -14 94 -6 94 2 0 37 -14 77 -31 54 -23 93 -33 144
-35 70 -3 70 -3 15 5 -68 10 -144 34 -188 61 -31 19 -32 21 -18 48 8 15 27 39
43 54 l28 26 68 -44 c79 -52 89 -51 16 1 -48 34 -50 37 -32 50 24 19 30 18 82
-5z m-445 -64 c-3 -8 1 -18 8 -22 18 -11 39 -14 33 -5 -5 9 38 31 59 31 22 0
58 -103 76 -217 5 -31 7 -97 3 -148 l-6 -93 -26 9 c-130 49 -260 142 -304 217
-12 21 2 12 45 -31 54 -53 168 -130 168 -113 0 3 -18 15 -40 26 -22 11 -70 49
-106 85 -65 63 -65 64 -50 92 8 15 28 44 45 63 l31 35 22 -26 c13 -14 40 -45
61 -70 l39 -44 -23 40 c-13 22 -38 64 -56 93 -36 58 -38 62 -22 62 6 0 17 7
25 15 19 19 25 19 18 1z m-2649 -30 c39 -26 53 -56 61 -131 6 -63 6 -69 -8
-57 -9 7 -19 25 -23 39 -3 15 -9 22 -13 16 -12 -18 -50 4 -83 49 -19 26 -29
34 -24 21 10 -36 -3 -27 -25 17 -20 39 -20 40 -1 59 16 16 26 18 55 11 20 -4
48 -15 61 -24z m4049 -48 c-3 -13 -7 -24 -8 -25 0 0 -41 -6 -91 -12 -122 -15
-165 -14 -165 2 0 14 172 55 238 56 30 1 33 -1 26 -21z m-3366 -35 c25 -36 52
-115 52 -154 l0 -30 -34 26 c-19 14 -53 50 -76 80 -41 53 -41 54 -25 79 23 35
58 34 83 -1z m168 -53 c1 0 -5 -18 -14 -40 -9 -22 -21 -38 -26 -37 -14 5 -76
97 -76 113 0 10 14 8 56 -11 31 -14 58 -25 60 -25z m3169 0 c-48 -96 -128
-160 -155 -126 -5 6 -24 29 -42 50 l-33 39 38 -6 c22 -3 35 -2 32 4 -4 5 -19
9 -36 9 -17 0 -38 9 -51 23 l-23 22 130 16 c72 9 138 17 148 18 15 1 15 -5 -8
-49z m138 -9 c-4 -3 -17 -32 -27 -63 -14 -43 -24 -58 -38 -58 -10 0 -18 -4
-18 -10 0 -5 5 -10 10 -10 14 0 -12 -50 -38 -73 -20 -18 -21 -18 -31 2 -12 21
-15 141 -5 179 7 24 67 61 119 72 25 5 31 3 33 -13 2 -11 0 -22 -5 -26z
m-3048 11 l34 -19 -94 -54 c-51 -30 -92 -56 -90 -58 2 -2 51 22 108 53 58 31
115 56 127 56 11 0 36 -10 55 -23 l34 -23 -57 -34 c-31 -19 -77 -45 -102 -58
-25 -12 -34 -20 -20 -16 14 4 64 26 112 50 61 31 89 40 94 32 18 -29 -125
-116 -224 -137 -84 -18 -255 -13 -361 9 -52 11 -97 23 -100 26 -6 6 73 -2 116
-13 34 -8 76 41 102 120 12 37 26 69 30 71 3 2 25 -1 48 -7 40 -10 41 -11 26
-34 -9 -13 -13 -26 -10 -29 2 -3 14 11 26 30 22 34 75 76 99 76 6 0 28 -8 47
-18z m3281 -37 c4 -8 3 -23 -1 -32 -5 -10 -7 -27 -6 -38 2 -29 -8 -39 -62 -59
-53 -20 -60 -33 -8 -15 76 27 38 -29 -54 -81 -38 -21 -79 -46 -90 -55 -13 -11
-8 -10 15 3 46 27 137 72 143 72 10 0 -25 -94 -42 -114 -9 -10 -41 -31 -71
-47 -30 -16 -44 -27 -30 -23 14 3 44 17 68 29 48 27 52 20 26 -45 -19 -46 -44
-62 -122 -79 -60 -13 -282 -15 -282 -3 0 4 22 34 49 66 27 31 68 94 92 139 46
86 154 210 216 248 36 23 106 47 136 48 10 1 20 -6 23 -14z m-2572 -107 l-3
-93 14 80 c7 44 14 85 14 91 1 7 12 9 26 6 18 -3 24 -9 21 -21 -14 -49 -17
-117 -6 -185 14 -90 10 -113 -26 -155 -73 -87 -134 33 -105 206 16 92 40 163
56 163 9 0 12 -22 9 -92z m1502 30 c15 -18 40 -60 55 -93 31 -67 72 -263 67
-323 l-3 -39 -75 19 c-41 10 -96 29 -122 41 -45 22 -46 22 -36 3 12 -22 6
-158 -13 -322 l-12 -100 -35 38 c-42 46 -81 68 -200 110 -203 71 -284 143
-322 286 -9 37 -9 46 8 66 l18 24 27 -52 c15 -29 41 -68 58 -87 l29 -34 -30
46 c-24 37 -70 131 -70 143 0 2 19 11 41 22 l42 18 41 -49 c46 -55 347 -375
354 -375 10 0 -50 72 -169 202 -72 79 -144 162 -160 186 l-30 42 23 9 c25 10
34 6 134 -65 84 -59 158 -143 180 -203 23 -65 31 -58 9 8 -23 72 -62 119 -156
194 -98 78 -118 103 -97 124 12 12 21 9 59 -20 24 -18 60 -43 79 -56 32 -21
33 -21 10 -1 -14 11 -44 37 -68 56 -36 30 -41 38 -31 51 15 18 76 50 105 54
29 5 94 -43 166 -121 47 -50 57 -58 44 -32 -10 19 -46 63 -81 98 l-64 63 60
32 c33 18 70 45 82 59 26 32 40 28 83 -22z m-3530 -9 c23 -23 50 -59 60 -80 9
-22 19 -38 21 -36 6 7 -29 80 -54 114 l-26 34 54 -22 c30 -11 74 -27 99 -35
66 -20 109 -50 125 -86 13 -32 13 -32 18 -8 4 21 4 20 6 -7 2 -43 -15 -83 -48
-113 -15 -14 -18 -18 -7 -10 20 14 20 14 6 -5 -30 -42 -54 -55 -108 -55 -65 0
-108 17 -162 66 -48 43 -69 82 -99 178 -27 87 -27 90 7 102 41 16 62 9 108
-37z m2329 -77 c4 -4 4 3 1 16 -6 16 -3 22 8 22 20 0 59 -43 103 -113 20 -31
38 -55 40 -53 3 2 -11 29 -30 59 -20 30 -33 58 -30 61 10 10 57 -6 82 -28 31
-28 51 -75 53 -128 1 -37 2 -35 7 17 4 36 10 59 17 58 6 -1 26 24 43 55 18 31
30 48 27 37 -2 -11 -10 -45 -16 -75 -14 -62 -47 -131 -85 -175 -25 -29 -26
-29 -40 -11 -8 11 -15 16 -15 12 0 -19 -60 33 -103 90 -51 66 -97 177 -96 229
1 25 3 22 14 -18 7 -27 17 -52 20 -55z m-140 10 c17 -42 35 -99 42 -127 9 -42
11 -45 12 -18 1 17 -10 63 -24 101 -14 38 -25 73 -25 76 0 4 23 -5 50 -21 43
-24 53 -35 67 -78 21 -60 25 -257 6 -276 -27 -27 -142 71 -186 157 -22 43 -31
121 -22 198 6 59 9 66 28 66 18 0 27 -14 52 -78z m-585 -26 l35 -75 89 65 c49
35 92 62 95 58 6 -5 -20 -31 -154 -152 l-70 -63 90 70 c50 39 106 85 126 101
31 27 39 29 63 20 24 -9 26 -12 15 -32 -60 -113 -244 -249 -384 -284 l-25 -6
0 91 c0 51 4 111 9 134 6 23 12 54 15 68 6 26 42 79 54 79 4 0 23 -34 42 -74z
m2460 30 c0 -34 -134 -116 -155 -95 -12 12 80 107 109 111 28 5 46 -1 46 -16z
m-1250 -91 c0 -54 -35 -179 -68 -239 -68 -126 -194 -220 -297 -221 -65 0 -109
31 -159 114 -41 66 -42 71 -20 71 8 0 13 -4 9 -9 -3 -6 7 -9 22 -8 22 2 31 10
40 37 7 19 12 50 12 69 1 25 4 31 14 23 6 -5 27 -13 45 -17 l32 -7 2 -96 1
-97 7 97 c3 54 9 100 12 103 3 3 17 -5 33 -17 23 -18 31 -19 47 -9 18 11 19
10 13 -11 -4 -13 -20 -48 -36 -78 -27 -52 -27 -53 -4 -25 14 16 35 55 47 85
12 30 36 84 55 120 18 36 39 88 45 117 l13 52 60 3 c33 2 63 -1 67 -7 4 -5 8
-28 8 -50z m1334 50 l47 -7 -27 -47 c-60 -105 -112 -135 -229 -135 -55 0 -89
6 -110 17 -16 9 -25 16 -20 17 6 0 47 2 92 5 88 4 160 32 198 76 l20 24 -26
-23 c-38 -33 -121 -62 -180 -62 -50 0 -51 1 -37 21 7 12 42 32 78 45 35 12 77
37 94 53 17 17 36 29 42 27 6 -2 32 -8 58 -11z m-3300 -22 l31 -28 -24 28
c-28 30 -20 33 43 16 26 -7 57 -29 92 -65 28 -30 56 -54 62 -54 7 0 -9 19 -33
41 -49 45 -57 64 -22 49 12 -5 34 -11 48 -14 15 -3 39 -22 54 -41 21 -29 24
-39 15 -50 -21 -25 -142 -15 -264 21 -25 8 -96 73 -96 89 0 11 34 33 54 34 6
1 24 -11 40 -26z m545 -26 c12 -16 -10 -41 -69 -76 -19 -11 -31 -21 -27 -21
13 0 70 31 104 56 31 24 32 24 38 4 5 -15 -2 -31 -24 -56 -42 -47 -39 -56 4
-14 24 23 35 29 35 18 0 -8 3 -35 6 -59 6 -43 5 -45 -41 -78 -25 -18 -67 -51
-93 -74 -26 -22 -69 -50 -97 -62 -27 -12 -75 -33 -105 -46 -33 -14 -71 -41
-95 -68 -26 -28 -32 -40 -18 -33 11 7 61 25 109 41 l87 30 51 -26 c78 -39 79
-40 54 -77 -12 -17 -33 -43 -46 -58 l-26 -28 -23 22 c-13 12 -38 44 -55 72
l-33 50 -8 -40 c-19 -93 -19 -93 -28 -45 -5 24 -11 46 -13 49 -3 3 -21 -7 -41
-22 -43 -33 -113 -65 -141 -66 -17 0 -24 11 -37 53 -15 49 -16 39 -3 -28 6
-28 3 -33 -28 -47 l-34 -17 -7 47 c-7 53 4 119 34 206 12 33 21 69 21 81 0 22
2 22 100 -18 55 -22 108 -48 118 -57 18 -17 19 -15 34 49 9 36 38 116 66 176
27 61 51 119 54 130 3 16 14 21 62 27 32 4 61 10 64 13 10 10 40 5 51 -8z
m544 -56 c3 -27 15 -68 27 -91 12 -23 30 -70 41 -105 13 -43 40 -92 84 -152
85 -116 104 -152 114 -221 8 -51 9 -46 10 56 1 88 4 111 14 106 6 -5 0 6 -15
24 -27 33 -67 137 -56 148 11 11 44 -14 110 -84 72 -76 78 -93 78 -217 0 -59
-6 -83 -36 -150 -52 -116 -51 -121 2 -20 45 84 48 96 52 181 l4 91 69 -18 c73
-19 125 -45 133 -65 11 -29 -33 -82 -125 -151 -84 -62 -107 -87 -180 -190
l-84 -118 -6 95 c-10 144 -36 196 -176 356 -48 56 -89 116 -112 164 -35 73
-36 79 -36 190 0 100 3 122 24 168 31 70 56 71 64 3z m-1382 -74 c26 -45 46
-83 45 -84 -1 -1 -21 5 -45 13 -88 30 -123 57 -128 98 -2 16 6 27 34 43 21 12
40 19 43 17 3 -3 26 -42 51 -87z m233 -24 c25 -13 21 -7 -19 30 -27 25 -47 48
-43 52 4 4 47 0 95 -9 81 -15 91 -19 134 -62 25 -25 63 -51 84 -58 l39 -14
-40 -5 c-21 -3 -88 -4 -149 -3 -102 1 -114 3 -163 31 -30 16 -65 43 -79 59
l-25 30 31 15 c17 8 31 18 31 23 0 4 17 -10 37 -33 20 -22 50 -47 67 -56z
m-364 -54 c0 -47 -9 -96 -30 -165 -32 -104 -104 -269 -117 -269 -14 0 -113
341 -113 388 0 3 20 12 45 20 l45 16 1 -37 c0 -20 7 -55 15 -77 7 -22 11 -29
8 -15 -3 14 -8 62 -11 108 l-6 83 32 12 c17 6 32 16 32 22 1 5 7 -30 14 -80
l12 -90 2 89 c1 71 5 93 19 106 16 16 18 16 34 -14 11 -20 17 -54 18 -97z
m-490 73 c0 -1 -7 -19 -15 -39 -21 -50 -11 -53 11 -4 20 43 28 47 69 31 34
-13 41 -36 19 -63 l-19 -22 26 23 c27 24 73 29 85 10 20 -32 -97 -85 -152 -69
-48 15 -104 41 -104 49 0 4 8 26 17 49 14 33 23 42 40 41 13 -2 23 -4 23 -6z
m3847 -75 c61 -56 71 -80 98 -228 13 -71 26 -138 30 -148 5 -17 -3 -15 -62 14
-55 28 -87 37 -173 46 -106 11 -186 37 -214 68 -14 15 -14 19 0 39 19 28 36
28 60 1 10 -11 28 -25 39 -31 11 -5 5 2 -12 17 -32 26 -43 58 -23 70 5 3 29
-7 52 -22 43 -29 93 -53 106 -53 4 1 -11 10 -33 22 -22 11 -50 30 -62 41 -22
19 -22 22 -6 39 25 27 46 22 101 -24 28 -24 65 -52 84 -62 32 -18 32 -18 -7
17 -22 20 -44 36 -48 37 -13 0 -37 67 -37 105 0 19 5 53 12 74 14 46 23 44 95
-22z m-1713 -19 c42 -20 46 -26 71 -97 15 -42 34 -87 42 -99 8 -13 17 -49 19
-80 4 -47 3 -53 -6 -32 -6 14 -37 61 -69 105 -32 44 -67 98 -78 120 -21 42
-39 105 -29 105 3 0 26 -10 50 -22z m1943 -77 c81 -72 121 -131 139 -206 l7
-29 -29 22 c-16 13 -57 41 -91 62 -34 22 -76 58 -94 82 -35 49 -81 139 -74
146 8 8 35 -20 62 -65 36 -62 38 -53 3 17 -32 63 -38 83 -17 59 6 -8 49 -48
94 -88z m26 88 c30 -8 37 -14 32 -28 -4 -13 4 -21 27 -32 41 -18 59 -54 65
-133 l4 -61 -33 60 c-18 33 -64 92 -102 132 -72 77 -71 84 7 62z m-3432 -70
c30 -38 148 -313 155 -363 4 -23 -3 -42 -24 -74 l-29 -43 -7 58 c-12 107 -23
124 -19 28 4 -84 3 -92 -20 -120 -22 -26 -28 -28 -52 -20 -21 8 -33 24 -50 70
-12 33 -30 81 -40 106 -18 46 -18 46 10 145 20 69 29 123 29 176 1 44 5 77 10
75 6 -2 22 -19 37 -38z m3998 -5 c40 -89 46 -149 26 -259 -21 -120 -43 -155
-109 -177 -45 -15 -46 -15 -45 6 0 11 11 62 23 111 13 50 22 92 21 93 -5 5
-42 -116 -50 -162 -8 -42 -17 -44 -46 -15 -18 18 -20 29 -15 65 6 48 53 157
87 206 13 17 18 28 12 25 -19 -12 -80 -118 -103 -181 l-22 -58 -24 28 c-13 16
-23 35 -24 43 0 21 75 146 123 206 35 43 112 115 123 115 2 0 12 -21 23 -46z
m-3049 -14 c47 -12 91 -27 97 -32 17 -14 -2 -50 -64 -118 -26 -29 -38 -48 -27
-42 26 14 85 78 120 132 15 22 29 40 33 40 3 0 21 -9 39 -20 41 -25 41 -43 -2
-147 -41 -102 -31 -100 15 2 19 41 40 75 47 75 25 0 10 -53 -47 -167 -53 -107
-60 -126 -65 -200 -6 -78 -38 -207 -54 -217 -4 -2 -6 17 -5 42 1 26 0 39 -3
29 -12 -40 -33 -10 -35 51 -1 24 -3 29 -6 14 l-4 -23 -20 25 c-26 33 -24 50
12 104 31 46 31 47 4 21 -27 -26 -57 -71 -91 -136 -10 -18 -21 -33 -24 -33 -4
0 -12 60 -19 132 -7 73 -15 135 -18 138 -5 5 -2 -55 13 -240 5 -64 4 -64 -10
-32 -26 56 -105 172 -151 221 l-44 47 49 49 c54 53 51 55 74 -40 l15 -60 -7
85 c-4 47 -7 127 -7 177 1 89 2 94 30 123 20 21 37 30 50 27 11 -3 58 -15 105
-27z m1286 -43 c3 -3 11 -86 19 -184 l13 -178 1 132 1 131 83 -25 c118 -37
112 -30 115 -112 4 -104 -17 -169 -78 -236 -31 -35 -51 -67 -56 -90 -4 -21 -9
-33 -13 -27 -3 5 -45 37 -93 70 -150 107 -227 220 -236 347 l-4 71 39 27 c70
48 77 42 97 -80 17 -103 54 -225 74 -245 6 -6 -2 26 -18 71 -29 86 -56 264
-46 305 4 15 15 26 29 28 28 5 66 2 73 -5z m1422 -80 c32 -33 32 -34 13 -51
-19 -17 -20 -17 -34 6 -18 29 -30 78 -19 78 4 0 23 -15 40 -33z m-4250 -44
c52 -24 173 -149 201 -205 l22 -47 -27 -40 c-25 -38 -44 -46 -44 -18 0 21 -48
111 -76 142 -20 23 -23 24 -10 5 70 -107 90 -175 70 -234 -8 -22 -22 -71 -30
-108 -27 -119 -40 -100 -60 91 l-13 126 5 -125 c3 -69 6 -133 7 -144 1 -13 -6
-19 -26 -22 -23 -2 -30 3 -47 37 -12 22 -28 84 -37 138 -14 90 -14 106 0 192
9 51 14 95 12 97 -2 2 -10 -28 -19 -67 -32 -142 -10 -330 48 -411 48 -65 57
-86 61 -138 l3 -47 -17 52 c-26 75 -63 129 -139 199 l-66 61 -4 104 c-4 93 -1
112 23 179 14 41 36 106 48 143 21 66 23 68 50 63 16 -3 45 -14 65 -23z m4676
-53 c0 -39 -5 -56 -22 -72 -12 -12 -24 -19 -27 -16 -6 5 10 110 21 147 10 30
28 -9 28 -59z m-4205 -80 c22 -41 49 -103 60 -137 21 -62 28 -147 13 -157 -4
-2 -28 5 -54 16 -37 16 -48 26 -53 50 -8 32 -54 140 -65 148 -3 3 -15 19 -27
35 -19 28 -20 33 -7 64 8 19 24 50 36 69 l21 34 18 -23 c10 -13 36 -58 58 -99z
m3917 -96 c37 -74 56 -154 35 -154 -9 0 -34 11 -60 28 -3 1 -8 21 -12 45 l-6
42 -2 -55 c-1 -30 -9 -80 -19 -110 -14 -47 -20 -55 -39 -52 -12 2 -34 17 -48
33 -21 26 -25 41 -26 102 l-2 72 -9 -63 -10 -62 -29 21 c-29 21 -34 40 -29
114 1 17 22 68 46 113 24 46 44 95 44 108 0 39 122 -94 166 -182z m-3141 23
c44 -46 97 -113 118 -148 40 -68 91 -214 83 -236 -9 -23 -42 -14 -54 15 l-11
27 5 -32 c3 -17 1 -34 -5 -37 -9 -6 -21 22 -41 104 -16 65 -60 179 -72 186 -5
3 -2 -8 7 -26 9 -17 30 -82 45 -143 16 -62 32 -122 36 -134 5 -18 0 -23 -32
-32 -21 -6 -39 -9 -41 -7 -2 2 -30 58 -63 125 -57 115 -88 163 -55 84 9 -22
12 -40 6 -46 -9 -9 -150 -12 -158 -3 -7 7 23 59 46 80 14 13 21 31 21 57 0 21
6 68 14 106 8 37 17 101 21 141 l7 74 22 -35 c11 -20 57 -73 101 -120z m-213
40 c-17 -40 -37 -110 -45 -155 -16 -85 -36 -132 -70 -169 -29 -33 -47 -29 -47
10 l-1 32 -12 -27 c-11 -25 -14 -26 -47 -14 -31 10 -35 15 -34 43 3 51 41 166
70 209 14 21 18 32 9 23 -10 -10 -32 -43 -51 -75 -18 -33 -34 -51 -34 -42 0
16 -3 16 -40 3 l-41 -14 36 67 c42 80 87 114 174 131 36 7 80 25 108 44 30 20
49 28 51 20 2 -6 -10 -45 -26 -86z m3725 -10 c61 -97 77 -151 72 -249 -4 -66
-11 -87 -76 -223 -39 -82 -81 -186 -93 -229 -23 -88 -45 -135 -36 -77 4 19 9
60 12 90 l7 56 -37 -34 c-47 -45 -49 -18 -3 31 25 27 38 34 50 27 19 -11 16
-17 69 111 43 105 43 105 42 230 0 78 -5 134 -12 150 l-13 25 6 -25 c3 -14 8
-61 12 -105 6 -86 -3 -148 -37 -237 -18 -48 -25 -56 -50 -60 l-29 -4 4 75 4
76 -9 -60 c-5 -33 -15 -71 -21 -85 -12 -25 -12 -24 -26 20 -7 25 -17 83 -22
130 l-8 85 -1 -70 c-1 -38 5 -101 13 -140 18 -84 18 -85 1 -62 -13 17 -14 17
-21 0 -7 -16 -9 -15 -16 7 -9 26 -7 6 7 -95 8 -61 -11 -23 -36 70 -12 45 -24
128 -27 191 -9 164 14 222 141 362 36 40 66 79 66 87 0 29 16 13 67 -68z
m-1293 -36 c25 -87 21 -158 -16 -248 -24 -60 -32 -95 -34 -153 -1 -41 -6 -76
-12 -78 -5 -1 -16 14 -25 35 -30 75 -41 159 -41 298 1 120 0 132 -8 80 -20
-131 6 -325 58 -427 13 -26 22 -48 19 -48 -6 0 -69 99 -93 147 -35 68 -72 251
-72 350 l0 91 39 -14 c21 -7 56 -23 76 -34 45 -25 55 -17 55 48 0 42 1 42 19
25 10 -10 26 -42 35 -72z m6 69 c0 -5 -2 -10 -4 -10 -3 0 -8 5 -11 10 -3 6 -1
10 4 10 6 0 11 -4 11 -10z m-1631 -62 c-23 -58 -94 -184 -110 -193 -5 -4 13
39 42 96 75 150 107 196 68 97z m1367 44 c6 -4 14 -52 17 -107 4 -61 16 -137
32 -194 14 -51 24 -95 22 -97 -2 -2 -22 35 -44 83 -43 92 -83 233 -83 290 0
28 4 33 23 33 12 0 27 -4 33 -8z m726 -1 c32 -5 64 -21 104 -52 78 -60 48 -64
-59 -8 -45 23 -100 48 -122 55 l-40 13 35 0 c19 0 56 -4 82 -8z m-3569 -73
c20 -40 42 -95 48 -121 11 -47 7 -165 -7 -216 -5 -17 6 -9 42 29 45 49 189
151 273 194 l34 18 -8 -137 -7 -137 28 15 c52 27 118 40 230 46 l111 6 -38
-47 c-20 -26 -54 -91 -75 -144 -29 -76 -47 -106 -84 -143 -52 -52 -80 -63
-215 -82 -68 -9 -140 -31 -217 -64 -11 -4 -18 -3 -18 4 0 18 57 48 159 82 119
39 200 81 254 131 l42 39 -50 -37 c-61 -45 -127 -75 -225 -102 -71 -20 -133
-25 -124 -10 2 3 25 20 51 37 59 40 46 41 -18 1 -31 -19 -51 -25 -55 -19 -9
15 71 94 139 136 31 20 57 38 57 40 0 15 -116 -61 -167 -110 -35 -33 -63 -55
-63 -48 0 46 111 159 195 197 31 14 95 34 143 44 48 10 81 19 74 19 -26 2
-156 -21 -193 -34 l-37 -14 18 32 c10 18 21 43 25 57 3 14 -7 2 -23 -25 -17
-28 -37 -57 -46 -64 -18 -15 -19 -12 -7 21 23 62 18 77 -8 22 -24 -52 -33 -61
-55 -61 -18 0 -26 5 -26 17 0 38 31 114 57 143 l28 30 -32 -23 c-35 -25 -53
-62 -78 -161 -18 -69 -49 -128 -90 -172 -26 -28 -45 -28 -45 -1 0 12 -4 12
-20 2 -25 -16 -35 -5 -20 21 9 18 17 21 43 16 30 -6 34 -3 56 37 l23 43 -23
-28 c-24 -27 -24 -27 -51 -9 l-27 17 30 70 c16 38 27 70 25 72 -2 2 -27 -42
-55 -99 -55 -109 -58 -102 -10 23 15 42 31 96 34 120 l5 44 -15 -50 c-22 -78
-46 -123 -73 -141 -24 -16 -25 -16 -18 2 22 56 59 299 43 284 -3 -3 -10 -44
-16 -91 -6 -48 -19 -107 -27 -133 -13 -39 -20 -46 -41 -46 l-26 0 6 116 c3 64
4 114 2 112 -2 -2 -10 -56 -16 -121 -12 -113 -13 -116 -35 -115 -20 2 -25 10
-30 46 -22 144 18 276 115 387 30 33 58 70 64 83 6 12 13 22 17 22 3 0 23 -33
43 -72z m3283 24 l81 -4 17 -101 c9 -55 14 -102 11 -105 -2 -2 -30 17 -62 44
l-58 48 69 -71 69 -71 -29 -27 c-37 -35 -65 -46 -82 -32 -18 15 -40 59 -52
104 l-10 38 5 -44 c3 -24 13 -57 21 -73 19 -38 6 -51 -43 -44 -27 4 -33 1 -33
-13 0 -10 -6 -18 -14 -18 -15 0 -26 95 -26 222 0 63 -11 121 -35 177 -6 16 -2
15 41 -4 32 -14 77 -23 130 -26z m200 22 c79 -25 139 -56 204 -103 19 -14 37
-26 39 -27 1 -2 0 -7 -3 -13 -4 -6 -22 -5 -53 4 -29 9 -52 11 -62 5 -11 -6
-23 -3 -38 12 l-22 20 20 -39 c10 -21 21 -68 24 -103 l6 -65 -31 58 c-17 31
-33 57 -35 57 -3 0 2 -14 11 -32 9 -17 24 -55 35 -84 16 -49 16 -55 2 -70 -9
-8 -24 -13 -34 -11 -15 4 -13 -3 12 -40 31 -44 31 -45 6 -28 -82 53 -148 212
-175 423 -7 46 -6 62 3 62 7 0 48 -12 91 -26z m-1836 -43 c0 -15 -197 -148
-205 -139 -3 2 10 24 27 48 41 56 145 125 165 109 7 -6 13 -15 13 -18z m-143
-35 c-23 -23 -54 -57 -70 -76 l-27 -35 26 55 c27 58 79 111 100 103 8 -3 -3
-21 -29 -47z m163 7 c0 -29 -45 -115 -82 -157 -32 -37 -40 -41 -99 -47 -49 -5
-70 -3 -88 9 l-24 15 24 18 c13 10 53 36 89 58 36 21 88 57 115 80 56 45 65
49 65 24z m-1359 -70 c-8 -15 -10 -15 -11 -2 0 17 10 32 18 25 2 -3 -1 -13 -7
-23z m3448 -52 c51 -26 127 -111 157 -174 l24 -52 -30 -27 c-17 -16 -34 -28
-39 -28 -5 0 -32 35 -60 78 -28 42 -65 93 -81 112 -34 38 66 -119 305 -485
l20 -30 -42 33 c-23 18 -83 87 -134 155 -128 170 -142 182 -49 42 77 -117 69
-114 -45 16 -22 25 -35 38 -29 29 6 -8 25 -39 43 -69 l33 -54 -39 31 c-65 51
-119 116 -136 163 -24 63 -58 302 -45 310 10 7 85 -19 147 -50z m-1553 11
c-53 -150 -138 -242 -222 -242 l-29 0 37 -25 c48 -33 95 -110 79 -129 -33 -40
-161 -65 -161 -32 0 8 10 17 23 19 l22 4 -22 8 c-23 7 -52 73 -59 135 -5 34
-3 36 57 70 68 38 137 116 167 187 17 43 17 43 69 43 l52 0 -13 -38z m-484
-18 c10 -21 8 -28 -17 -54 -22 -23 -34 -28 -54 -23 -41 9 -41 10 -8 67 27 45
35 52 50 44 10 -5 23 -20 29 -34z m361 9 c-11 -32 -72 -110 -105 -135 -31 -24
-111 -68 -123 -68 -16 0 0 37 38 83 29 37 65 66 117 95 41 23 76 41 77 42 1 0
0 -8 -4 -17z m-884 -42 c23 -55 27 -133 8 -170 -16 -33 -37 -38 -37 -10 0 22
0 22 -14 3 -14 -18 -15 -17 -31 20 -21 50 -7 148 28 194 16 20 24 14 46 -37z
m2833 22 c45 -52 63 -141 71 -358 6 -147 -12 -103 -22 55 -8 113 -8 114 -10
33 -1 -76 -3 -83 -21 -83 -12 0 -25 10 -31 23 -9 21 -9 21 -4 -3 2 -14 5 -33
5 -43 0 -10 6 -17 13 -16 26 3 35 -2 40 -21 3 -13 0 -20 -8 -20 -8 0 -19 -8
-24 -17 -9 -16 -12 -16 -21 -3 -6 8 -9 24 -9 35 1 11 -3 33 -10 50 -20 50 -41
147 -41 195 0 42 24 162 36 181 8 14 19 11 36 -8z m-2274 -45 c-3 -31 -6 -33
-43 -36 l-40 -3 34 35 c43 44 53 45 49 4z m607 -52 c29 -60 40 -136 30 -202
-9 -64 -25 -45 -41 48 -9 56 -12 63 -12 33 -1 -22 3 -59 7 -82 11 -56 -10 -59
-38 -5 -29 54 -26 29 4 -29 17 -35 20 -49 11 -49 -21 0 -32 19 -56 95 -27 85
-30 187 -7 232 30 58 60 46 102 -41z m361 53 c33 -17 74 -45 92 -62 43 -41
152 -191 152 -209 0 -7 -9 -1 -20 13 -11 14 -54 54 -97 89 l-78 63 83 -77 c45
-43 87 -88 94 -99 6 -12 -16 3 -48 33 -50 46 -184 131 -184 117 0 -2 29 -21
64 -42 35 -20 85 -58 111 -83 l47 -47 -31 -27 c-25 -22 -38 -27 -59 -22 -71
17 -168 99 -216 184 -14 25 -26 38 -26 29 0 -50 118 -175 202 -214 48 -22 49
-24 28 -35 -12 -6 -34 -9 -48 -6 -24 5 -23 4 8 -14 l35 -21 -35 7 c-176 33
-301 174 -349 391 l-9 42 48 -24 c27 -14 51 -29 55 -35 12 -20 32 -9 65 35 19
25 39 45 46 45 7 0 38 -14 70 -31z m-1058 -50 c13 -5 38 -9 57 -9 l34 0 -6
-57 c-7 -73 -36 -120 -94 -152 l-44 -24 19 24 c11 13 -21 -17 -70 -68 -49 -50
-107 -100 -129 -111 -68 -34 -153 -55 -193 -47 l-35 7 28 22 28 23 -23 6 c-20
5 -21 8 -11 21 19 22 74 55 140 83 31 14 43 22 26 18 -16 -3 -58 -19 -92 -35
-75 -35 -89 -21 -35 34 42 44 93 71 220 116 96 34 121 51 38 26 l-46 -14 30
34 c44 51 37 55 -12 7 -24 -23 -67 -50 -97 -62 -29 -11 -72 -32 -95 -47 -51
-34 -37 -12 38 60 l51 48 -59 -40 c-58 -40 -59 -40 -79 -22 -19 18 -19 21 -4
44 64 98 293 161 415 115z m-795 -121 c26 -57 47 -109 47 -117 0 -14 -61 -11
-167 10 -53 10 -53 11 -53 47 1 43 13 63 55 85 24 13 26 16 10 17 -17 1 -15 5
15 30 19 17 37 30 40 30 4 0 28 -46 53 -102z m2539 31 c21 -5 50 -21 65 -34
l28 -24 -75 -2 -75 -2 75 -7 c91 -8 143 -22 192 -52 52 -32 196 -158 221 -192
l20 -28 -24 12 c-13 7 -55 39 -94 70 -38 31 -83 65 -100 74 -30 17 -30 17 -5
-1 27 -20 184 -151 239 -200 40 -35 38 -55 -2 -22 -15 11 -30 18 -35 15 -14
-9 -342 89 -404 121 -16 7 -28 11 -28 9 0 -9 56 -35 131 -60 73 -25 73 -25 44
-36 -79 -31 -147 -20 -217 33 -54 42 -80 87 -118 209 -17 54 -33 104 -36 113
-5 13 6 15 77 15 46 0 101 -5 121 -11z m-1550 -117 c6 -6 18 -34 28 -63 16
-52 16 -54 -2 -74 -11 -11 -28 -36 -38 -55 -49 -94 -135 -159 -210 -160 -43 0
-55 8 -63 41 -6 23 -3 28 26 40 17 7 50 24 72 38 22 14 60 36 85 49 63 34 75
49 15 19 -27 -13 -90 -37 -139 -51 -82 -25 -89 -26 -106 -11 -23 21 -31 52
-16 64 6 5 45 16 88 24 42 9 91 23 110 32 18 8 24 13 13 9 -11 -3 -46 -11 -78
-17 -47 -9 -60 -8 -67 3 -14 22 -1 36 58 68 31 17 66 38 77 47 15 12 35 15 79
11 32 -2 63 -9 68 -14z m657 -54 c61 -91 92 -120 161 -152 l55 -26 -60 6 c-76
8 -102 21 -159 85 -59 66 -59 56 0 -17 30 -36 40 -54 28 -50 -10 5 -23 9 -29
10 -46 9 -105 89 -105 142 0 34 25 74 45 74 8 0 37 -33 64 -72z m-1722 10 c46
-7 83 -15 83 -19 0 -10 -54 -26 -107 -34 -37 -5 -47 -2 -68 19 -49 49 -38 53
92 34z m-902 -23 c0 -22 -14 -28 -34 -16 -12 8 -13 12 -1 26 16 20 35 14 35
-10z m2345 10 c16 -19 6 -45 -19 -45 -10 0 -29 9 -42 20 -21 17 -22 21 -9 30
22 14 56 12 70 -5z m-2467 -11 c3 -3 3 -12 0 -20 -4 -11 -9 -12 -19 -3 -8 6
-14 15 -14 20 0 10 24 12 33 3z m-36 -26 c6 -7 13 -21 16 -30 5 -14 2 -15 -24
-6 -28 9 -37 27 -22 41 10 10 19 8 30 -5z m93 -8 c0 -18 -16 -25 -42 -21 -5 0
-8 -7 -8 -16 -1 -17 -1 -17 -11 -1 -7 13 -5 23 8 38 23 26 53 26 53 0z m73
-21 c6 -9 7 -24 3 -35 -6 -16 -9 -16 -33 8 -26 26 -24 52 4 46 9 -2 20 -10 26
-19z m2323 -23 c81 -28 277 -106 284 -114 24 -24 -320 93 -365 124 -30 22 1
18 81 -10z m714 9 c0 -1 -11 -5 -25 -7 -20 -4 -23 -2 -14 8 8 10 39 10 39 -1z
m-3086 -21 c21 -20 21 -119 1 -165 -14 -33 -14 -33 -15 48 0 67 -3 84 -17 92
-14 8 -15 12 -4 25 16 20 16 20 35 0z m4244 -21 c17 -33 39 -163 26 -151 -10
11 -62 177 -56 182 9 10 11 8 30 -31z m-4313 7 c3 -5 -9 -19 -27 -30 -37 -22
-50 -10 -22 21 19 21 39 25 49 9z m209 -13 c13 -21 -16 -81 -70 -142 -38 -43
-31 -21 16 49 32 47 38 76 17 76 -7 0 -23 -21 -35 -47 l-21 -48 6 45 c9 74 19
92 49 88 15 -2 32 -11 38 -21z m37 -34 c-12 -20 -14 -14 -5 12 4 9 9 14 11 11
3 -2 0 -13 -6 -23z m4182 13 c7 -19 -1 -26 -30 -26 -22 0 -31 19 -16 33 11 12
41 7 46 -7z m-2553 -25 c-47 -25 -80 -34 -80 -23 0 4 21 16 48 24 63 21 74 21
32 -1z m-1862 -13 c14 -14 16 -57 3 -77 -10 -16 -16 -7 -26 36 -3 18 -11 35
-16 38 -14 9 -11 -39 7 -80 21 -50 4 -37 -24 18 -12 25 -19 52 -16 61 7 19 54
22 72 4z m4202 -24 c0 -8 3 -14 8 -14 4 0 23 -14 42 -31 l35 -31 -40 21 -40
22 33 -31 c18 -16 28 -30 24 -30 -12 0 -84 52 -102 74 -13 16 -12 20 4 32 21
15 36 10 36 -12z m228 14 c17 -17 15 -39 -9 -73 l-20 -30 6 33 c5 25 3 32 -9
32 -10 0 -18 -14 -22 -37 l-7 -38 -13 30 c-26 60 -12 95 36 95 14 0 31 -5 38
-12z m-1681 -14 c-3 -3 -12 -4 -19 -1 -8 3 -5 6 6 6 11 1 17 -2 13 -5z"/>
<path d="M4582 4970 c0 -14 2 -19 5 -12 2 6 2 18 0 25 -3 6 -5 1 -5 -13z"/>
<path d="M4587 4841 c-4 -61 -14 -118 -26 -151 -27 -70 -20 -76 9 -8 16 38 24
79 28 155 3 57 3 103 0 103 -3 0 -8 -44 -11 -99z"/>
<path d="M4421 4684 c0 -11 3 -14 6 -6 3 7 2 16 -1 19 -3 4 -6 -2 -5 -13z"/>
<path d="M3080 4860 c8 -5 20 -10 25 -10 6 0 3 5 -5 10 -8 5 -19 10 -25 10 -5
0 -3 -5 5 -10z"/>
<path d="M2878 4843 c6 -2 18 -2 25 0 6 3 1 5 -13 5 -14 0 -19 -2 -12 -5z"/>
<path d="M2824 4824 c-18 -14 -18 -14 6 -3 31 14 36 19 24 19 -6 0 -19 -7 -30
-16z"/>
<path d="M3273 4150 c0 -25 2 -35 4 -22 2 12 2 32 0 45 -2 12 -4 2 -4 -23z"/>
<path d="M3262 4065 c0 -16 2 -22 5 -12 2 9 2 23 0 30 -3 6 -5 -1 -5 -18z"/>
<path d="M3251 4014 c0 -11 3 -14 6 -6 3 7 2 16 -1 19 -3 4 -6 -2 -5 -13z"/>
<path d="M1541 3974 c0 -11 3 -14 6 -6 3 7 2 16 -1 19 -3 4 -6 -2 -5 -13z"/>
<path d="M1551 3934 c0 -11 3 -14 6 -6 3 7 2 16 -1 19 -3 4 -6 -2 -5 -13z"/>
<path d="M1720 3866 c0 -2 8 -10 18 -17 15 -13 16 -12 3 4 -13 16 -21 21 -21
13z"/>
<path d="M133 4585 c0 -22 2 -30 4 -17 2 12 2 30 0 40 -3 9 -5 -1 -4 -23z"/>
<path d="M362 4600 c0 -14 2 -19 5 -12 2 6 2 18 0 25 -3 6 -5 1 -5 -13z"/>
<path d="M351 4554 c0 -11 3 -14 6 -6 3 7 2 16 -1 19 -3 4 -6 -2 -5 -13z"/>
<path d="M326 4483 c-6 -14 -5 -15 5 -6 7 7 10 15 7 18 -3 3 -9 -2 -12 -12z"/>
<path d="M265 4408 c-43 -44 -45 -48 -13 -24 30 22 77 76 66 76 -2 0 -25 -23
-53 -52z"/>
<path d="M502 4320 c0 -19 2 -27 5 -17 2 9 2 25 0 35 -3 9 -5 1 -5 -18z"/>
<path d="M778 4513 c7 -3 16 -2 19 1 4 3 -2 6 -13 5 -11 0 -14 -3 -6 -6z"/>
<path d="M2431 4494 c0 -11 3 -14 6 -6 3 7 2 16 -1 19 -3 4 -6 -2 -5 -13z"/>
<path d="M1160 4205 c19 -19 36 -35 39 -35 3 0 -10 16 -29 35 -19 19 -36 35
-39 35 -3 0 10 -16 29 -35z"/>
<path d="M3529 4289 l-24 -20 28 17 c15 9 27 18 27 20 0 8 -8 4 -31 -17z"/>
<path d="M690 4281 c0 -5 15 -20 33 -32 l32 -22 -29 31 c-32 34 -36 37 -36 23z"/>
<path d="M3625 4090 c-27 -16 -72 -50 -100 -75 -48 -45 -47 -45 20 8 39 30 85
62 103 71 17 9 32 19 32 21 0 8 -2 7 -55 -25z"/>
<path d="M3862 4090 c0 -14 2 -19 5 -12 2 6 2 18 0 25 -3 6 -5 1 -5 -13z"/>
<path d="M3708 3965 c-27 -20 -48 -38 -48 -41 0 -6 89 57 96 68 8 13 1 9 -48
-27z"/>
<path d="M1438 3603 c7 -3 16 -2 19 1 4 3 -2 6 -13 5 -11 0 -14 -3 -6 -6z"/>
<path d="M2771 3554 c0 -11 3 -14 6 -6 3 7 2 16 -1 19 -3 4 -6 -2 -5 -13z"/>
<path d="M2785 3480 c2 -25 7 -74 10 -110 4 -36 2 -118 -5 -183 -10 -105 -18
-144 -44 -222 -4 -11 2 -3 13 17 52 92 69 330 36 478 -11 52 -13 56 -10 20z"/>
<path d="M902 3470 c0 -14 2 -19 5 -12 2 6 2 18 0 25 -3 6 -5 1 -5 -13z"/>
<path d="M511 3100 c-19 -16 -32 -32 -30 -35 3 -2 21 11 39 30 41 42 37 45 -9
5z"/>
<path d="M1956 3547 c3 -10 9 -15 12 -12 3 3 0 11 -7 18 -10 9 -11 8 -5 -6z"/>
<path d="M2041 3556 c2 -2 15 -9 29 -15 24 -11 24 -11 6 3 -16 13 -49 24 -35
12z"/>
<path d="M2100 3526 c0 -2 8 -10 18 -17 15 -13 16 -12 3 4 -13 16 -21 21 -21
13z"/>
<path d="M2170 3456 c0 -2 8 -10 18 -17 15 -13 16 -12 3 4 -13 16 -21 21 -21
13z"/>
<path d="M1990 3116 c0 -2 8 -10 18 -17 15 -13 16 -12 3 4 -13 16 -21 21 -21
13z"/>
<path d="M1895 3051 c48 -50 125 -117 125 -108 0 2 -39 39 -87 82 -63 56 -74
63 -38 26z"/>
<path d="M1545 2934 c50 -51 173 -139 182 -131 2 3 -6 11 -19 17 -12 7 -43 29
-68 49 -44 37 -115 85 -95 65z"/>
<path d="M1818 2873 c7 -3 16 -2 19 1 4 3 -2 6 -13 5 -11 0 -14 -3 -6 -6z"/>
<path d="M3948 3033 c7 -3 16 -2 19 1 4 3 -2 6 -13 5 -11 0 -14 -3 -6 -6z"/>
<path d="M3908 3023 c7 -3 16 -2 19 1 4 3 -2 6 -13 5 -11 0 -14 -3 -6 -6z"/>
<path d="M4740 2820 c8 -5 20 -10 25 -10 6 0 3 5 -5 10 -8 5 -19 10 -25 10 -5
0 -3 -5 5 -10z"/>
<path d="M1100 2756 c0 -3 9 -10 20 -16 11 -6 20 -8 20 -6 0 3 -9 10 -20 16
-11 6 -20 8 -20 6z"/>
<path d="M302 2560 c0 -14 2 -19 5 -12 2 6 2 18 0 25 -3 6 -5 1 -5 -13z"/>
<path d="M3588 2433 c7 -3 16 -2 19 1 4 3 -2 6 -13 5 -11 0 -14 -3 -6 -6z"/>
<path d="M3533 2423 c9 -2 23 -2 30 0 6 3 -1 5 -18 5 -16 0 -22 -2 -12 -5z"/>
<path d="M3482 2325 l23 -25 58 22 c62 23 72 34 16 18 -44 -13 -92 -13 -107 0
-7 5 -2 -1 10 -15z"/>
<path d="M1988 2493 c7 -3 16 -2 19 1 4 3 -2 6 -13 5 -11 0 -14 -3 -6 -6z"/>
<path d="M1848 2363 c6 -2 18 -2 25 0 6 3 1 5 -13 5 -14 0 -19 -2 -12 -5z"/>
<path d="M902 2300 c0 -14 2 -19 5 -12 2 6 2 18 0 25 -3 6 -5 1 -5 -13z"/>
<path d="M3108 2483 c7 -3 16 -2 19 1 4 3 -2 6 -13 5 -11 0 -14 -3 -6 -6z"/>
<path d="M2715 2310 c3 -5 8 -10 11 -10 2 0 4 5 4 10 0 6 -5 10 -11 10 -5 0
-7 -4 -4 -10z"/>
<path d="M3993 2463 c9 -2 25 -2 35 0 9 3 1 5 -18 5 -19 0 -27 -2 -17 -5z"/>
<path d="M282 2325 c0 -16 2 -22 5 -12 2 9 2 23 0 30 -3 6 -5 -1 -5 -18z"/>
<path d="M3870 2273 c0 -9 179 -47 186 -40 4 4 -92 30 -153 42 -18 4 -33 3
-33 -2z"/>
<path d="M4088 2223 c7 -3 16 -2 19 1 4 3 -2 6 -13 5 -11 0 -14 -3 -6 -6z"/>
<path d="M3771 2151 c-24 -15 43 -43 92 -38 l42 4 -47 1 c-37 2 -48 6 -53 22
-7 22 -13 24 -34 11z"/>
<path d="M3948 2123 c7 -3 16 -2 19 1 4 3 -2 6 -13 5 -11 0 -14 -3 -6 -6z"/>
<path d="M3977 1889 c7 -7 15 -10 18 -7 3 3 -2 9 -12 12 -14 6 -15 5 -6 -5z"/>
<path d="M3788 1883 c6 -2 18 -2 25 0 6 3 1 5 -13 5 -14 0 -19 -2 -12 -5z"/>
<path d="M4353 2043 c9 -2 25 -2 35 0 9 3 1 5 -18 5 -19 0 -27 -2 -17 -5z"/>
<path d="M3448 1763 c6 -2 18 -2 25 0 6 3 1 5 -13 5 -14 0 -19 -2 -12 -5z"/>
<path d="M4624 1614 c-18 -14 -18 -14 6 -3 31 14 36 19 24 19 -6 0 -19 -7 -30
-16z"/>
<path d="M2203 1525 c0 -33 2 -45 4 -27 2 18 2 45 0 60 -2 15 -4 0 -4 -33z"/>
<path d="M3632 1588 c18 -27 48 -72 65 -100 18 -29 33 -48 33 -42 0 14 -70
119 -105 159 -20 22 -18 18 7 -17z"/>
<path d="M3492 1505 c4 -4 20 -17 37 -29 16 -11 49 -36 73 -54 l43 -34 -47 44
c-39 36 -128 98 -106 73z"/>
<path d="M441 1506 l-24 -31 28 27 c16 15 27 29 24 31 -2 3 -15 -10 -28 -27z"/>
<path d="M300 1486 c0 -2 8 -10 18 -17 15 -13 16 -12 3 4 -13 16 -21 21 -21
13z"/>
<path d="M2630 1436 c0 -2 8 -10 18 -17 15 -13 16 -12 3 4 -13 16 -21 21 -21
13z"/>
<path d="M2432 1430 c0 -14 2 -19 5 -12 2 6 2 18 0 25 -3 6 -5 1 -5 -13z"/>
<path d="M1097 1045 c15 -19 32 -35 37 -35 6 0 -5 16 -24 35 -43 45 -49 45
-13 0z"/>
<path d="M522 1220 c0 -19 2 -27 5 -17 2 9 2 25 0 35 -3 9 -5 1 -5 -18z"/>
<path d="M851 974 c0 -11 3 -14 6 -6 3 7 2 16 -1 19 -3 4 -6 -2 -5 -13z"/>
<path d="M1832 660 c0 -14 2 -19 5 -12 2 6 2 18 0 25 -3 6 -5 1 -5 -13z"/>
<path d="M151 984 c0 -11 3 -14 6 -6 3 7 2 16 -1 19 -3 4 -6 -2 -5 -13z"/>
<path d="M581 894 c0 -11 3 -14 6 -6 3 7 2 16 -1 19 -3 4 -6 -2 -5 -13z"/>
<path d="M4511 870 c14 -31 19 -36 19 -24 0 6 -7 19 -16 30 -14 18 -14 18 -3
-6z"/>
<path d="M4411 814 c0 -11 3 -14 6 -6 3 7 2 16 -1 19 -3 4 -6 -2 -5 -13z"/>
<path d="M4771 644 c0 -11 3 -14 6 -6 3 7 2 16 -1 19 -3 4 -6 -2 -5 -13z"/>
<path d="M4712 590 c0 -14 2 -19 5 -12 2 6 2 18 0 25 -3 6 -5 1 -5 -13z"/>
<path d="M4853 565 c0 -22 2 -30 4 -17 2 12 2 30 0 40 -3 9 -5 -1 -4 -23z"/>
<path d="M4721 414 c0 -11 3 -14 6 -6 3 7 2 16 -1 19 -3 4 -6 -2 -5 -13z"/>
<path d="M492 695 c0 -16 2 -22 5 -12 2 9 2 23 0 30 -3 6 -5 -1 -5 -18z"/>
<path d="M572 585 c0 -16 2 -22 5 -12 2 9 2 23 0 30 -3 6 -5 -1 -5 -18z"/>
<path d="M600 329 c-7 -11 -10 -23 -7 -25 2 -2 9 7 15 21 14 30 7 33 -8 4z"/>
<path d="M4270 416 c0 -2 8 -10 18 -17 15 -13 16 -12 3 4 -13 16 -21 21 -21
13z"/>
<path d="M4622 520 c0 -14 2 -19 5 -12 2 6 2 18 0 25 -3 6 -5 1 -5 -13z"/>
<path d="M2891 524 c0 -11 3 -14 6 -6 3 7 2 16 -1 19 -3 4 -6 -2 -5 -13z"/>
<path d="M3230 526 c0 -3 9 -10 20 -16 11 -6 20 -8 20 -6 0 3 -9 10 -20 16
-11 6 -20 8 -20 6z"/>
<path d="M3190 326 c0 -2 8 -10 18 -17 15 -13 16 -12 3 4 -13 16 -21 21 -21
13z"/>
<path d="M3260 276 c0 -3 9 -10 20 -16 11 -6 20 -8 20 -6 0 3 -9 10 -20 16
-11 6 -20 8 -20 6z"/>
<path d="M4020 357 c0 -2 37 -27 83 -55 45 -28 96 -63 112 -77 l30 -26 -30 6
c-16 3 -58 19 -93 35 -34 16 -60 25 -57 21 7 -12 161 -86 210 -101 22 -7 60
-24 85 -38 38 -21 42 -22 27 -5 -18 20 -117 73 -137 73 -6 0 -8 4 -5 10 7 12
-80 80 -162 126 -35 19 -63 33 -63 31z"/>
<path d="M3930 256 c0 -2 8 -10 18 -17 15 -13 16 -12 3 4 -13 16 -21 21 -21
13z"/>
<path d="M3024 5099 c-10 -12 -40 -32 -66 -45 -62 -32 -61 -38 1 -13 46 19
117 79 94 79 -5 0 -18 -9 -29 -21z"/>
<path d="M4100 5110 c-8 -5 -10 -10 -5 -10 6 0 17 5 25 10 8 5 11 10 5 10 -5
0 -17 -5 -25 -10z"/>
<path d="M4670 5112 c0 -9 52 -59 85 -82 11 -8 3 4 -18 27 -32 34 -36 41 -22
47 29 11 35 7 124 -78 48 -46 110 -95 139 -110 57 -29 150 -48 138 -28 -4 7
-17 12 -30 12 -44 0 -142 60 -229 140 -85 78 -89 80 -137 80 -28 0 -50 -4 -50
-8z"/>
<path d="M4872 5091 c25 -16 66 -46 90 -66 23 -21 12 -7 -26 29 -39 38 -77 66
-89 66 -15 0 -9 -8 25 -29z"/>
<path d="M4998 5104 c29 -7 66 -21 82 -29 46 -24 49 -17 5 11 l-40 25 38 -3
c20 -2 37 -1 37 4 0 4 -39 7 -87 7 l-88 -1 53 -14z"/>
<path d="M3308 5083 c6 -2 18 -2 25 0 6 3 1 5 -13 5 -14 0 -19 -2 -12 -5z"/>
<path d="M3940 5075 c-45 -9 -54 -13 -30 -13 19 0 58 6 85 13 63 16 30 16 -55
0z"/>
<path d="M3848 5053 c7 -3 16 -2 19 1 4 3 -2 6 -13 5 -11 0 -14 -3 -6 -6z"/>
<path d="M3250 5020 c8 -5 22 -9 30 -9 10 0 8 3 -5 9 -27 12 -43 12 -25 0z"/>
<path d="M1048 4993 c7 -3 16 -2 19 1 4 3 -2 6 -13 5 -11 0 -14 -3 -6 -6z"/>
<path d="M4855 4945 c22 -20 67 -52 100 -70 65 -36 165 -69 165 -55 0 5 -22
16 -48 24 -61 17 -142 58 -207 103 l-50 34 40 -36z"/>
<path d="M1328 4913 c7 -3 16 -2 19 1 4 3 -2 6 -13 5 -11 0 -14 -3 -6 -6z"/>
<path d="M1518 4833 c23 -2 61 -2 85 0 23 2 4 4 -43 4 -47 0 -66 -2 -42 -4z"/>
<path d="M1699 4813 c-26 -13 -75 -28 -110 -32 -52 -7 -56 -9 -23 -10 51 -1
135 23 166 49 29 24 25 23 -33 -7z"/>
<path d="M1498 4713 c7 -3 16 -2 19 1 4 3 -2 6 -13 5 -11 0 -14 -3 -6 -6z"/>
<path d="M4925 4610 c37 -25 130 -60 153 -59 9 1 -1 7 -23 14 -23 7 -64 24
-93 39 -61 31 -79 34 -37 6z"/>
<path d="M450 3991 c5 -11 15 -23 21 -27 6 -3 3 5 -6 20 -20 30 -30 35 -15 7z"/>
<path d="M5027 3983 c-32 -9 -56 -17 -54 -19 5 -6 131 19 142 28 13 12 -21 8
-88 -9z"/>
<path d="M160 3954 c-52 -19 -85 -34 -72 -34 22 0 182 57 182 66 0 6 -9 4
-110 -32z"/>
<path d="M13 3913 c9 -2 25 -2 35 0 9 3 1 5 -18 5 -19 0 -27 -2 -17 -5z"/>
<path d="M4671 3454 c0 -11 3 -14 6 -6 3 7 2 16 -1 19 -3 4 -6 -2 -5 -13z"/>
<path d="M4598 3410 c9 -21 18 -35 20 -30 3 9 -25 70 -33 70 -2 0 4 -18 13
-40z"/>
<path d="M5051 2594 c0 -11 3 -14 6 -6 3 7 2 16 -1 19 -3 4 -6 -2 -5 -13z"/>
<path d="M58 1823 c6 -2 18 -2 25 0 6 3 1 5 -13 5 -14 0 -19 -2 -12 -5z"/>
<path d="M148 1813 c7 -3 16 -2 19 1 4 3 -2 6 -13 5 -11 0 -14 -3 -6 -6z"/>
<path d="M5079 393 l-34 -38 38 34 c20 19 37 36 37 38 0 8 -8 0 -41 -34z"/>
<path d="M115 398 c15 -12 34 -37 42 -55 15 -38 9 -75 -11 -67 -7 3 7 -36 31
-87 43 -89 71 -118 40 -42 -8 21 -18 63 -22 93 -3 30 -11 71 -17 90 -12 40
-54 90 -76 90 -9 0 -4 -9 13 -22z"/>
<path d="M10 250 c8 -5 20 -10 25 -10 6 0 3 5 -5 10 -8 5 -19 10 -25 10 -6 0
-3 -5 5 -10z"/>
<path d="M2730 75 c0 -8 101 -76 110 -73 5 1 -18 20 -50 40 -33 20 -60 35 -60
33z"/>
<path d="M4173 53 c9 -2 25 -2 35 0 9 3 1 5 -18 5 -19 0 -27 -2 -17 -5z"/>
<path d="M3261 46 c5 -5 163 -46 176 -46 23 1 -34 22 -97 35 -76 16 -86 17
-79 11z"/>
<path d="M4258 43 c6 -2 18 -2 25 0 6 3 1 5 -13 5 -14 0 -19 -2 -12 -5z"/>
<path d="M4339 20 c24 -11 48 -20 55 -19 15 1 -66 38 -84 39 -8 0 5 -9 29 -20z"/>
<path d="M3228 13 c7 -3 16 -2 19 1 4 3 -2 6 -13 5 -11 0 -14 -3 -6 -6z"/>
<path d="M47 3 c18 -2 50 -2 70 0 21 2 7 4 -32 4 -38 0 -55 -2 -38 -4z"/>
<path d="M3268 3 c6 -2 18 -2 25 0 6 3 1 5 -13 5 -14 0 -19 -2 -12 -5z"/>
<path d="M4217 3 c18 -2 50 -2 70 0 21 2 7 4 -32 4 -38 0 -55 -2 -38 -4z"/>
<path d="M5073 3 c9 -2 23 -2 30 0 6 3 -1 5 -18 5 -16 0 -22 -2 -12 -5z"/>
</g>
</svg>